<svg id="Layer_1" data-name="Layer 1" xmlns="http://www.w3.org/2000/svg" viewBox="0 0 150 150"><defs><style>.cls-1{fill:#0098f8;}.cls-2{fill:#fff;}</style></defs><title>app-store</title><path class="cls-1" d="M148.77617,28.449v93.56761a28.653,28.653,0,0,1-6.78734,16.13407,30.7164,30.7164,0,0,1-15.0737,9.81628,45.82831,45.82831,0,0,1-5.4895.82439H28.14591a26.59562,26.59562,0,0,1-9.37144-2.45085,30.35,30.35,0,0,1-16.48985-18.9503,24.30653,24.30653,0,0,1-1.04348-7.509Q1.21875,75.635,1.22384,31.38885C1.215,20.04808,6.2805,11.54442,15.66486,5.50993A26.86179,26.86179,0,0,1,30.5123,1.232c29.73724.03084,59.47534-.11243,89.21141.07588,12.29778.07788,20.92382,6.44781,26.47278,17.22582A24.882,24.882,0,0,1,148.77617,28.449Z"/><path class="cls-2" d="M87.8434,99.55678c-18.37932,0-36.50731.02383-54.63515-.01815a7.1763,7.1763,0,0,1-.0361-14.35255c4.31511-.07179,8.63284-.056,12.94815.00784a1.84852,1.84852,0,0,0,1.88085-1.11253q9.06609-15.81165,18.20908-31.57911a1.62557,1.62557,0,0,0,.02663-1.92019c-1.66715-2.79271-3.38034-5.56976-4.84161-8.4709a7.124,7.124,0,0,1,6.42016-10.46845,6.863,6.863,0,0,1,5.6604,2.90873c.5366.72932.98689,1.52214,1.52692,2.36468.74667-.56946.98478-1.47865,1.50356-2.17718a6.94442,6.94442,0,0,1,6.86454-3.02827,6.85324,6.85324,0,0,1,5.8882,5.01011,7.7073,7.7073,0,0,1-1.02756,6.44994Q81.41963,54.89768,74.65338,66.65106q-5.27227,9.12711-10.53681,18.25212c.29759.46229.7194.24947,1.05558.25076,4.46011.01713,8.92031.01158,13.38048.01126.51538,0,.97522-.062,1.32241.54905C82.46813,90.27834,85.10692,94.81647,87.8434,99.55678Z"/><path class="cls-2" d="M86.708,57.28693c5.1303,8.88725,10.15955,17.52844,15.09357,26.22365a2.861,2.861,0,0,0,2.99772,1.69679c3.881-.12456,7.76865-.05641,11.65353-.03814,4.45071.02091,7.67714,3.05837,7.6772,7.19357s-3.22643,7.16409-7.677,7.19559c-1.70593.01207-3.412.002-5.32631.002,1.60611,2.79147,3.14257,5.36974,4.58848,7.99782a7.19907,7.19907,0,0,1-1.64495,9.43023c-3.616,2.77441-8.39281,1.78753-10.826-2.31535-2.61117-4.403-5.14413-8.85235-7.70424-13.2855Q87.32157,87.15643,79.09027,72.9329a2.07694,2.07694,0,0,1-.037-2.44875C81.62047,66.17275,84.09762,61.80772,86.708,57.28693Z"/><path class="cls-2" d="M52.35228,105.31839c-2.17722,3.57092-3.85868,7.13016-6.14518,10.31347a7.00853,7.00853,0,0,1-9.47137,1.82473,7.27535,7.27535,0,0,1-2.69267-9.19259c.90928-2.16582,2.07625-3.19057,4.66034-3.02454C43.14535,105.52485,47.6189,105.31839,52.35228,105.31839Z"/></svg>