<svg id="Layer_1" data-name="Layer 1" xmlns="http://www.w3.org/2000/svg" viewBox="0 0 140 140"><defs><style>.cls-1{fill:#3880ff;stroke:#3880ff;stroke-miterlimit:10;stroke-width:1.18579px;}</style></defs><title>Blog</title><path class="cls-1" d="M107.21461,4.04657a23.28957,23.28957,0,0,1,11.34305,5.06985,22.35377,22.35377,0,0,1,8.09152,17.10665c.07985,2.7075.03865,5.41951.00989,8.129-.03272,3.08338-1.83641,4.87718-4.92083,4.89719-3.54011.023-7.08047.00408-10.62073.0074-1.79875.00169-1.8052.00568-1.80536,1.83044q-.00251,29.04321.00041,58.08643c.00068,3.87926-.67368,7.56461-3.0055,10.79182-3.45045,4.77538-8.23409,6.86054-14.00763,6.87164q-15.86553.0305-31.73111-.01244a4.63167,4.63167,0,0,0-3.1041,1.07069q-11.79849,9.3868-23.66488,18.68825a14.76915,14.76915,0,0,1-1.48178,1.079,4.27122,4.27122,0,0,1-6.74429-3.74183c-.04542-5.463-.02909-10.9267.00066-16.38987a1.5851,1.5851,0,0,0-1.118-1.77443c-6.79545-2.71573-10.62866-8.19046-10.64139-15.47139q-.06419-36.71363.01161-73.42739A22.86392,22.86392,0,0,1,29.82305,4.86272c1.03663-.32816,2.108-.54674,3.16319-.81615ZM75.40039,108.09809q8.72037,0,17.44074-.002a7.41868,7.41868,0,0,0,6.32769-3.11012,8.42935,8.42935,0,0,0,1.40812-5.21728q-.00226-29.24276-.001-58.4855c0-2.02627-.00121-2.02724-2.09866-2.0273q-21.76815-.00069-43.53631-.004c-3.3454-.00186-4.96188-1.66061-5.00958-4.99685a84.63765,84.63765,0,0,0-.22528-9.9533A13.48562,13.48562,0,0,0,35.64436,12.62747,13.78441,13.78441,0,0,0,22.574,26.60612q-.05961,36.97951-.009,73.95919a7.291,7.291,0,0,0,6.77622,7.50183c3.61652.4274,4.88546,1.791,4.93482,5.44869.04482,3.32146.00455,6.644.0222,9.966.00216.40777-.20733.97624.29219,1.17458.39336.15618.67784-.31423.97528-.548q9.12387-7.17,18.22807-14.36491a7.25347,7.25347,0,0,1,4.82175-1.66789C64.20983,108.14236,69.80537,108.09968,75.40039,108.09809Zm-21.374-95.566c4.353,8.22879,4.48013,8.68955,4.493,16.12425.00318,1.83925.00319,1.84249,1.89476,1.84258q26.67439.00129,53.34878-.01217c1.29562-.00138,2.93454.56112,3.804-.27388.93649-.89939.31168-2.57556.32095-3.90552a13.23419,13.23419,0,0,0-4.86156-10.45366,14.177,14.177,0,0,0-9.69394-3.32q-23.98731-.00492-47.9746-.00157Z"/><path class="cls-1" d="M62.67382,58.16962c-8.07869-.00114-16.15743.01207-24.23607-.00895-2.52219-.00656-4.1317-2.04234-3.37719-4.23052a3.10262,3.10262,0,0,1,2.67687-2.20307,6.02187,6.02187,0,0,1,.78472-.03275q24.2361-.00231,48.4722-.00913A3.416,3.416,0,0,1,90.149,53.17861a3.19876,3.19876,0,0,1-2.71556,4.96852c-2.48707.07221-4.97774.02268-7.46682.02323Q71.32021,58.17224,62.67382,58.16962Z"/><path class="cls-1" d="M62.89637,69.26605c8.07882.00117,16.15769-.013,24.23644.00945,2.55679.0071,4.08309,1.96837,3.35862,4.23911A3.03472,3.03472,0,0,1,87.818,75.70349a10.6793,10.6793,0,0,1-1.439.03933q-23.58141.00246-47.1628.00085c-2.79087-.00018-4.3392-1.14939-4.35322-3.22184-.014-2.06739,1.55847-3.25576,4.321-3.25635Q51.04016,69.26295,62.89637,69.26605Z"/><path class="cls-1" d="M62.67159,93.31662c-8.07871-.00115-16.15743.01168-24.23608-.00886-2.47144-.00628-4.03787-1.936-3.41641-4.1092a3.22173,3.22173,0,0,1,2.72055-2.32439,7.9041,7.9041,0,0,1,.91575-.03366q24.10509-.00231,48.21018-.011a3.48456,3.48456,0,0,1,3.35324,1.60929,3.19622,3.19622,0,0,1-2.78761,4.85552c-2.53084.07076-5.06509.0225-7.59784.023Q71.25247,93.31926,62.67159,93.31662Z"/></svg>