<svg id="Layer_1" data-name="Layer 1" xmlns="http://www.w3.org/2000/svg" viewBox="0 0 140 140"><defs><style>.cls-1{fill:#3880ff;stroke:#3880ff;stroke-miterlimit:10;stroke-width:2px;}</style></defs><title>business</title><path class="cls-1" d="M137.91636,64.17242c-1.3043,4.38565-4.30731,6.60717-8.74563,7.56121C114.20528,74.9505,99.28418,78.37326,84.33526,81.668c-1.22039.269-1.66742.7307-1.61328,2.006.10448,2.46127.05006,4.9304.02352,7.39586-.02971,2.75988-1.11619,3.84975-3.84887,3.85621q-8.65206.02043-17.3042-.00114c-2.647-.00737-3.744-1.109-3.77794-3.79237-.0317-2.50938-.07359-5.02189.01947-7.52818.04513-1.2157-.39186-1.66858-1.54969-1.92259q-17.20752-3.77518-34.39478-7.64266c-3.90708-.871-7.81984-1.71759-11.71936-2.62127a9.30742,9.30742,0,0,1-7.61747-9.57264q-.01768-9.44463.001-18.88932c.01528-5.835,3.83584-9.746,9.657-9.74911q58.055-.03066,116.11-.00308c4.59721.00159,7.66926,2.22858,9.31643,6.59326.07731.20486.18547.39808.27926.59672Zm-67.5022-24.505q-28.85943,0-57.71887.00225c-2.77659.00062-3.68283.87634-3.689,3.596q-.021,9.1795-.00008,18.35907c.005,2.40072.64323,3.19966,3.03133,3.73438Q34.12,70.3036,56.20884,75.21973c1.54381.34393,1.549.32082,1.59821-1.22743.08792-2.76459,1.15445-3.82926,3.88427-3.83311q8.51913-.012,17.03829-.001c2.90783.00269,3.96985,1.01157,4.00067,3.961.01218,1.166.34525,1.4143,1.49017,1.15233,7.803-1.78545,15.62112-3.50492,23.43357-5.24924q10.30246-2.30025,20.603-4.60892c2.72624-.61133,3.29033-1.30478,3.2987-4.04879.0078-2.55352.00387-5.10708.00162-7.66063-.00326-3.69816.01995-7.39669-.02724-11.09431a2.70515,2.70515,0,0,0-2.86906-2.92708c-.52676-.03028-1.05633-.01509-1.5846-.01511Q98.74532,39.66656,70.41416,39.66739ZM64.27837,82.44963c0,1.58445.02893,3.16964-.01143,4.75306-.02235.87706.26493,1.29439,1.20142,1.28618,3.21265-.02817,6.42577-.02235,9.63855-.00353.829.00485,1.18962-.30645,1.18233-1.16725q-.04031-4.753.00032-9.50651c.0066-.82077-.26065-1.21451-1.1334-1.20834q-4.88511.03459-9.77057.00042c-.88761-.00626-1.13284.41861-1.11577,1.22487C64.30242,79.36827,64.27928,80.9092,64.27837,82.44963Z"/><path class="cls-1" d="M70.2876,128.74967q-27.34054-.00044-54.681.01764c-4.19414.00961-7.32268-1.58559-9.18-5.41256a10.50058,10.50058,0,0,1-.89866-4.6291C5.506,105.958,5.51077,82.19023,5.51961,69.4225c.00163-2.34926.69675-3.49379,2.31963-3.972a3.08271,3.08271,0,0,1,4.116,2.83125c.03837.52585.02128,1.0561.02132,1.58433.001,12.37148.00083,35.743.00071,48.11446a8.39237,8.39237,0,0,0,.20329,2.22568,2.47393,2.47393,0,0,0,2.42038,2.04386c.61472.03575,1.23159.048,1.84749.048q53.82257.00326,107.64515.00159c3.79608-.00005,4.4871-.7039,4.48735-4.56679.00079-12.41551-.00063-35.831.00113-48.24654.0004-2.831,1.0808-4.23788,3.217-4.20673,2.13224.0311,3.23941,1.45852,3.24111,4.25824.00764,12.67968.017,36.35938-.00337,49.039-.00838,5.2354-2.594,8.76371-7.18121,9.95192a13.43674,13.43674,0,0,1-3.41521.21572Q97.364,128.75612,70.2876,128.74967Z"/><path class="cls-1" d="M70.38064,11.76545c5.19147,0,10.3835-.04716,15.57423.01453A8.8447,8.8447,0,0,1,94.703,18.8075c.484,2.03094.35405,14.12015.14483,16.17088-.14622,1.43318-1.48043,2.307-3.08958,2.29394a2.93083,2.93083,0,0,1-3.04707-2.37893c-.26893-1.26-.15892-12.54158-.22176-13.81355-.09578-1.939-.92572-2.84283-2.87006-2.849q-15.31024-.04883-30.62071-.00335c-2.025.00592-2.84585.89821-2.93227,2.92473-.05427,1.2726.04833,12.555-.23348,13.81208a2.90069,2.90069,0,0,1-2.84113,2.3031c-1.59117.071-3.01991-.62959-3.18257-1.97775-.41743-3.45951-.6923-16.96283,1.67971-19.97932a8.51518,8.51518,0,0,1,6.78976-3.51659c5.36662-.06513,10.73458-.01893,16.102-.01893Z"/></svg>