<?xml version="1.0" encoding="utf-8"?>
<!-- Generator: Adobe Illustrator 23.0.5, SVG Export Plug-In . SVG Version: 6.00 Build 0)  -->
<svg version="1.1" id="Layer_1" xmlns="http://www.w3.org/2000/svg" xmlns:xlink="http://www.w3.org/1999/xlink" x="0px" y="0px"
	 viewBox="0 0 140 140" style="enable-background:new 0 0 140 140;" xml:space="preserve">
<style type="text/css">
	.st0{fill:#0065CE;stroke:#0065CE;stroke-width:3;stroke-miterlimit:10;}
</style>
<title>business</title>
<path class="st0" d="M2,121.2v-76c0,0,0,0,0-0.6c1.2-7.2,6.6-11.5,13.9-10.9c5.4,0,10.9,0,16.3,0c1.2,0,1.2-0.6,1.2-1.2
	c0-4.2,0-7.2,0-11.5c0-7.2,6-13.3,12.7-13.9c0.6,0,0.6,0,1.2,0c15.1,0,30.8,0,45.9,0c7.2,0,13.3,5.4,13.9,12.7c0,0.6,0,0.6,0,1.2
	c0,4.2,0,7.2,0,11.5c0,1.2,0.6,1.2,1.2,1.2c5.4,0,10.9,0,16.3,0c7.2-0.6,13.3,5.4,13.9,12.7c0,0.6,0,0.6,0,1.2c0,23.5,0,47.7,0,71.2
	c0,1.2,0,2.4-0.6,3.6c-1.8,6.6-6.6,10.3-13.3,10.3c-24.7,0-49.5,0-74.2,0c-11.5,0-22.9,0-34.4,0C8.7,132,3.2,127.8,2,121.2L2,121.2z
	 M70.2,12.6c-7.2,0-15.7,0-22.9,0c-4.8,0-9.1,3.6-9.1,8.4c0,4.2,0,7.8,0,12.1c0,1.2,0,1.2,1.2,1.2c4.2,0,7.8,0,12.1,0
	c1.8,0,36.2,0,38,0c1.8,0,3,1.2,3,2.4c0,1.8-1.2,3-2.4,3c0,0,0,0-0.6,0c-0.6,0-0.6,0-1.2,0c-13.9,0-60.3,0-74.2,0
	c-3-1.2-6.6,2.4-6.6,7.2v0.6c0,6.6,0,12.7,0,19.3c0,1.2,0.6,1.2,1.2,1.8c20.5,6.6,40.4,12.1,60.9,18.7c0.6,0,1.2,0,2.4,0
	c20.5-6.6,40.4-12.1,60.3-18.7c1.2-0.6,1.2-0.6,1.2-1.8c0-6.6,0-12.1,0-18.7c0.6-4.8-3-7.8-7.2-8.4c-0.6,0-1.2,0-1.8,0
	c-13.3,0-25.9,0-39.2,0c-1.2,0-1.8,0-3,0s-1.8-0.6-2.4-1.8c-0.6-1.2,0-3,1.2-3.6c-0.6,0,0,0,0,0c6,0,12.1,0,18.1,0
	c0.6,0,1.2,0,1.2-1.2c0-4.8,0-8.4,0-13.3v-0.6c0-4.2-3.6-6.6-7.2-6.6C85.3,12.6,77.4,12.6,70.2,12.6z M132.3,73.5
	c-0.6,0-1.2,0-1.2,0.6c-19.9,6-39.8,12.1-59.7,18.1c-1.2,0.6-2.4,0.6-3.6,0C47.9,86.2,28,80.2,8.1,74.1c-1.2-0.6-1.2,0-1.2,1.2
	c0,14.5,0,29,0,44c-0.6,4.8,3,8.4,6.6,8.4c0.6,0,1.2,0,1.8,0c35.6,0,71.8,0,107.4,0c4.8,0.6,8.4-3,8.4-6.6c0-0.6,0-1.2,0-1.8
	c0-14.5,0-29,0-43.4L132.3,73.5z"/>
</svg>
