<svg id="Layer_1" data-name="Layer 1" xmlns="http://www.w3.org/2000/svg" viewBox="0 0 52 52"><defs><style>.cls-1{fill:none;stroke:#ddd;stroke-miterlimit:10;}.cls-2{fill:#ff5023;}.cls-3{fill:#ffda44;}.cls-4{fill:#e0e0e2;}</style></defs><title>business-directory</title><path class="cls-1" d="M26.11733,1.06391h.00005a25,25,0,0,1,25,25v0a25,25,0,0,1-25,25h-.00006a25,25,0,0,1-25-25v0a25,25,0,0,1,25-25Z"/><path class="cls-2" d="M16.96,9.9172H38.82919a.81.81,0,0,1,.81.81V41.50608a.81.81,0,0,1-.81.81H16.96"/><path class="cls-3" d="M13.72008,13.15709V9.9172H35.04931a1.34954,1.34954,0,0,1,1.34995,1.34914h0V40.96609A1.34953,1.34953,0,0,1,35.05013,42.316H13.72008V39.07616"/><path class="cls-2" d="M25.67876,23.06762a1.61992,1.61992,0,0,0,2.29093,0l3.05461,3.05461a4.31857,4.31857,0,0,1-6.10737.00184h0l-.00184-.00183-2.29093-2.29094a4.31944,4.31944,0,0,1-.0006-6.10861h0l.0006-.0006,3.0546,3.05461A1.68238,1.68238,0,0,0,25.67876,23.06762Z"/><path class="cls-4" d="M24.34237,17.14938l1.90911,1.9091a.81017.81017,0,0,1,0,1.14547l0,0-.57272.57271-3.05461-3.05461.57271-.5727a.81.81,0,0,1,1.14547,0h0l0,0Z"/><path class="cls-4" d="M29.68791,22.49491,31.597,24.404a.80994.80994,0,0,1,.00008,1.14545l-.00006,0,0,0-.57272.57272-3.0546-3.05461.57271-.57272a.81.81,0,0,1,1.14547,0Z"/><path class="cls-4" d="M12.10013,20.71682H15.34v3.23989H12.10013Z"/><path class="cls-4" d="M12.10013,13.15709H15.34V16.397H12.10013Z"/><path class="cls-4" d="M12.10013,28.27655H15.34v3.23988H12.10013Z"/><path class="cls-4" d="M12.10013,35.83628H15.34v3.23988H12.10013Z"/><path class="cls-4" d="M19.11988,30.43647H32.07942v2.15991H19.11988Z"/><path d="M38.82919,9.37722H13.72008a.54.54,0,0,0-.54.54v2.69991h-1.08a.54.54,0,0,0-.54.54h0V16.397a.54.54,0,0,0,.54.54h1.08v3.23989h-1.08a.54.54,0,0,0-.54.54h0v3.23989a.54.54,0,0,0,.54.54h1.08V27.7366h-1.08a.54.54,0,0,0-.54.54h0v3.23988a.54.54,0,0,0,.54.54h1.08v3.23989h-1.08a.54.54,0,0,0-.54.54h0v3.23988a.54.54,0,0,0,.54.54h1.08V42.316a.54.54,0,0,0,.54.54H38.82919a1.3513,1.3513,0,0,0,1.34995-1.34995V10.72717A1.3513,1.3513,0,0,0,38.82919,9.37722ZM12.64011,15.857V13.69707H14.8V15.857Zm0,7.55973V21.2568H14.8v2.15991Zm0,7.55973V28.81653H14.8v2.15992Zm0,7.55973V36.37626H14.8v2.15992ZM35.85928,40.9661a.81065.81065,0,0,1-.81.81H14.26005V39.61614h1.08a.54.54,0,0,0,.54-.54V35.83628a.54.54,0,0,0-.54-.54h-1.08V32.05641h1.08a.54.54,0,0,0,.54-.54V28.27655a.54.54,0,0,0-.54-.54h-1.08V24.49668h1.08a.54.54,0,0,0,.54-.54V20.71682a.54.54,0,0,0-.54-.54h-1.08V16.937h1.08a.54.54,0,0,0,.54-.54V13.15709a.54.54,0,0,0-.54-.54h-1.08V10.45718H35.04931a.81065.81065,0,0,1,.81.81Zm3.23989.54a.27.27,0,0,1-.27.27H36.75632a1.87324,1.87324,0,0,0,.18292-.81v-29.699a1.87324,1.87324,0,0,0-.18292-.81h2.07287a.27.27,0,0,1,.27.27Z"/><path d="M24.53319,26.50405a4.85855,4.85855,0,0,0,6.871.00179l.00179-.00179.57271-.57272a1.34994,1.34994,0,0,0,0-1.9091l-1.9091-1.9091a1.35,1.35,0,0,0-1.90912-.00012h0l-.00011.00012-.57272.57273a1.08,1.08,0,0,1-1.52721-1.52734l.57272-.57271a1.35159,1.35159,0,0,0,0-1.90911l-1.909-1.90916a1.34994,1.34994,0,0,0-1.9091,0l-.57272.57278a4.86544,4.86544,0,0,0,0,6.87281Zm4.58194-3.70649a.26852.26852,0,0,1,.19088.07918l1.90944,1.90917a.26959.26959,0,0,1,.00052.38125h0l-.00051.00052-.19088.191-2.29094-2.291.19055-.19088a.2689.2689,0,0,1,.191-.07918Zm-5.34581-5.3458a.26869.26869,0,0,1,.19088.07917l1.90944,1.90937a.27.27,0,0,1,0,.38183h0l-.19088.19088-2.29094-2.29094.19095-.19088a.26868.26868,0,0,1,.19089-.07918Zm-1.118,1.06119,2.31207,2.31186A2.15992,2.15992,0,0,0,27.92157,23.783l2.3124,2.31247a3.77987,3.77987,0,0,1-4.93678-.355l-2.29094-2.291A3.78582,3.78582,0,0,1,22.65135,18.513Z"/><path d="M32.07942,29.89649H19.11988a.54.54,0,0,0-.54.54h0v2.15991a.54.54,0,0,0,.54.54H32.07942a.54.54,0,0,0,.54-.54V30.43647A.54.54,0,0,0,32.07942,29.89649Zm-.54,2.15992H19.65986v-1.08H31.53944Z"/><path d="M32.07942,34.21634H19.11988a.54.54,0,1,0,0,1.08H32.07942a.54.54,0,0,0,0-1.08Z"/><path d="M29.9195,35.83628H21.2798a.54.54,0,0,0,0,1.08h8.6397a.54.54,0,0,0,0-1.08Z"/></svg>