<?xml version="1.0" encoding="utf-8"?>
<!-- Generator: Adobe Illustrator 23.0.5, SVG Export Plug-In . SVG Version: 6.00 Build 0)  -->
<svg version="1.1" id="Layer_1" xmlns="http://www.w3.org/2000/svg" xmlns:xlink="http://www.w3.org/1999/xlink" x="0px" y="0px"
	 viewBox="0 0 140 140" style="enable-background:new 0 0 140 140;" xml:space="preserve">
<style type="text/css">
	.st0{fill:#3880FF;stroke:#3880FF;stroke-width:1.0272;stroke-miterlimit:10;}
</style>
<title>contact-us</title>
<path class="st0" d="M137.5,70.6c0,9.3,0,18.6,0,27.9c0,6.7-3.6,10.3-10.3,10.3c-9.6,0-19.1,0-28.7,0c-2.1,0-3.5-1-3.8-2.7
	c-0.4-1.8,0.8-3.6,2.6-4c0.2,0,0.4-0.1,0.6-0.1c0.9-0.1,1.9,0,2.8,0c8.8,0,17.5,0,26.3,0c2.9,0,3.4-0.5,3.4-3.4
	c0-17.3,0-34.5,0-51.8c0-0.6,0.3-1.4-0.3-1.6c-0.5-0.2-0.9,0.5-1.3,0.8C115.4,56.7,102,67.2,88.5,77.8c-5.6,4.4-10.4,4.3-15.9-0.1
	c-9.9-7.8-19.9-15.7-29.8-23.5c-0.2-0.2-0.6-0.3-0.7-0.6c-1-1.8-2.1-1.3-3.4-0.4c-0.6,0.4-1.3,0.8-1.9,1.1c-4.3,2-4.5,5.7-4.1,9
	c0.2,1.4,0.8,2.7,1.5,3.9c4.6,7.9,9.2,15.8,13.8,23.7c1.5,2.5,3.9,4.4,6.8,5c1.5,0.4,3.1,0.1,4.5-0.7c1.6-0.9,3.2-1.9,4.8-2.8
	c6-3.4,11.6-2.7,16.6,2c1.9,1.7,3.5,3.7,4.9,5.8c3.2,4.9,6.5,9.6,8.3,15.2c0.7,2.4,1.4,4.8,0.8,7.4c-0.4,1.8-1.4,3.5-2.9,4.6
	c-5.5,3.8-11.9,6.1-18.5,6.7c-13.6,1.4-24.9-3.6-35-12.4C31,115.7,26,107.9,21.4,99.7c-3.6-6.3-7.2-12.6-10.9-18.8
	C5.7,72.7,2.3,64,1.2,54.5c-1.8-16.2,3.4-29.7,16.5-39.9c2-1.5,4.1-2.7,6.3-3.7c3.1-1.4,6-0.5,8.6,1.5c3.7,2.8,6.2,6.5,8.3,10.5
	c1.6,2.7,3,5.4,4.2,8.3c0.2,0.7,0.9,1.2,1.6,1.1c0.5,0,1,0,1.5,0c26.2,0,52.3,0,78.5,0c2.7-0.2,5.4,0.7,7.6,2.3
	c2.2,1.8,3.3,4.5,3.2,7.3C137.5,51.4,137.5,61,137.5,70.6z M67.4,127.9c6.6,0,13.3-1.6,17.1-3.9c3.9-2.3,4.2-3,2.5-7.4
	c-2.3-5.4-5.4-10.5-9.1-15.1c-0.9-1.1-1.9-2.1-3-2.9c-2.2-1.7-4.5-2.1-6.9-0.5c-1.8,1.2-3.8,2.2-5.7,3.3c-2,1.2-4.4,1.8-6.8,1.6
	c-5.7-0.4-10.7-3.7-13.5-8.6c-4.5-7.8-9-15.6-13.6-23.3c-2.1-3.3-3-7.3-2.7-11.2c0.5-4.6,2.4-8.3,6.5-10.7c1.6-0.9,3.2-1.8,4.8-2.8
	c3.6-2.1,4.3-3.7,3.4-7.8c-1.1-5.1-3.9-9.4-6.3-13.9c-1.4-2.6-3.3-4.9-5.5-6.8c-0.7-0.6-1.4-1.2-2.4-0.6c-1.5,0.8-3,1.7-4.5,2.7
	C10.5,28.6,6.5,40.1,8,53.9c1,8.6,4.2,16.5,8.5,24c4,6.8,8,13.5,11.8,20.4c4.2,7.4,9,14.3,15.6,19.8C51.2,124,59.3,127.8,67.4,127.9
	L67.4,127.9z M126.6,39.3l-0.1-0.4h-1.3c-25.2,0-50.5,0-75.7,0c-0.2,0-0.5,0-0.7,0c-0.8-0.1-1.2,0.3-1.1,1.2
	c0.2,2.4-0.3,4.8-1.5,6.9c-0.4,0.6-0.4,0.9,0.3,1.5c10.1,7.9,20.2,15.8,30.3,23.8c3.3,2.6,4.7,2.6,8,0c11.1-8.7,22.1-17.3,33.1-26
	C120.7,44,123.6,41.6,126.6,39.3L126.6,39.3z"/>
</svg>
