<svg id="Layer_1" data-name="Layer 1" xmlns="http://www.w3.org/2000/svg" viewBox="0 0 52 52"><defs><style>.cls-1{fill:none;stroke:#ddd;stroke-miterlimit:10;}.cls-2{fill:#f5f5f5;}.cls-3{fill:#cfd8dc;}.cls-4{fill:#f44335;}.cls-5{fill:#c81e1e;}.cls-6{fill:#ffdf00;}.cls-7{fill:#eac300;}</style></defs><title>movies-events</title><path class="cls-1" d="M26.27521,1.12495h0a25,25,0,0,1,25,25V26.125a25,25,0,0,1-25,25h0a25,25,0,0,1-25-25v-.00005a25,25,0,0,1,25-25Z"/><path class="cls-2" d="M35.82059,15.661v8.85216H30.52037l.03872-.03873a.94055.94055,0,0,0-.52006-1.60446l-4.21584-.61966L23.931,18.3996a.92561.92561,0,0,0-1.67085,0l-1.89214,3.85069L16.1522,22.87a.94054.94054,0,0,0-.52006,1.60446l3.054,2.99866-.71924,4.238a.9339.9339,0,0,0,1.35548.99034l1.5602-.82436v3.70131h-8.2989a2.213,2.213,0,0,1-2.213-2.213h0V15.661Z"/><path class="cls-3" d="M34.16081,15.661h1.65978v8.85216H34.16081Z"/><path class="cls-4" d="M35.82059,14.00119V15.661H10.37064V14.00119a2.213,2.213,0,0,1,2.213-2.213H13.6902v.55327a1.10652,1.10652,0,1,0,2.213.00166v-.55493h3.31956v.55327a1.10652,1.10652,0,0,0,2.213,0v-.55327H24.7554v.55327a1.10652,1.10652,0,1,0,2.213,0v-.55327H30.288v.55327a1.10652,1.10652,0,1,0,2.213,0v-.55327h1.10652A2.213,2.213,0,0,1,35.82059,14.00119Z"/><path class="cls-5" d="M33.60755,11.78815H32.501v.078a2.20693,2.20693,0,0,1,1.65978,2.135V15.661h1.65978V14.00119a2.213,2.213,0,0,0-2.213-2.213Z"/><path class="cls-6" d="M15.90324,11.23489v1.10653a1.10652,1.10652,0,1,1-2.213.00166V11.23489a1.10652,1.10652,0,0,1,2.213,0Z"/><path class="cls-6" d="M21.43583,11.23489v1.10653a1.10652,1.10652,0,0,1-2.213,0V11.23489a1.10652,1.10652,0,0,1,2.213,0Z"/><path class="cls-6" d="M26.96843,11.23489v1.10653a1.10652,1.10652,0,1,1-2.213,0V11.23489a1.10652,1.10652,0,0,1,2.213,0Z"/><path class="cls-6" d="M32.501,11.23489v1.10653a1.10652,1.10652,0,1,1-2.213,0V11.23489a1.10652,1.10652,0,1,1,2.213,0Z"/><path class="cls-6" d="M30.55909,24.47442l-.03872.03872H23.64888a2.76629,2.76629,0,0,0-2.7663,2.7663h0V31.877l-1.5602.82437A.9339.9339,0,0,1,17.9669,31.711l.71924-4.238-3.054-2.99867A.94054.94054,0,0,1,16.1522,22.87l4.21584-.61967,1.89215-3.85069a.92562.92562,0,0,1,1.67085,0l1.89214,3.85069L30.039,22.87a.94054.94054,0,0,1,.52006,1.60446Z"/><path class="cls-6" d="M42.45971,28.10378v10.523a.85479.85479,0,0,1-1.527.5256l-2.34582-3.0208v3.31956a2.7663,2.7663,0,0,1-2.7663,2.7663H23.64888a2.7663,2.7663,0,0,1-2.7663-2.7663V27.27942a2.76629,2.76629,0,0,1,2.7663-2.7663H35.82059a2.76629,2.76629,0,0,1,2.7663,2.76629h0V30.599l2.34583-3.0208a.85479.85479,0,0,1,1.527.52559Z"/><path class="cls-7" d="M40.93272,27.57819l-.18258.23513a.85993.85993,0,0,1,.0498.29047v10.523a.85987.85987,0,0,1-.0498.29046l.18258.23513a.85478.85478,0,0,0,1.527-.52559v-10.523a.85478.85478,0,0,0-1.527-.52559Z"/><path class="cls-7" d="M35.82059,24.51313H34.16081a2.76629,2.76629,0,0,1,2.7663,2.76629h0V39.45114a2.76629,2.76629,0,0,1-2.76629,2.7663h1.65977a2.76629,2.76629,0,0,0,2.7663-2.76629h0V27.27942A2.76629,2.76629,0,0,0,35.82059,24.51313Z"/><circle class="cls-4" cx="29.73473" cy="33.36529" r="1.65978"/><path d="M42.06469,26.77485a1.38924,1.38924,0,0,0-1.569.46419l-1.35549,1.74553V27.27942a3.32287,3.32287,0,0,0-2.7663-3.26977V14.00119a2.76961,2.76961,0,0,0-2.76629-2.7663h-.55327a1.65978,1.65978,0,1,0-3.31956-.00137v.00137h-2.213a1.65978,1.65978,0,0,0-3.31956,0h-2.213a1.65978,1.65978,0,0,0-3.31956,0h-2.213a1.65978,1.65978,0,0,0-3.31956,0h-.55326a2.76961,2.76961,0,0,0-2.7663,2.7663v19.3641a2.76961,2.76961,0,0,0,2.7663,2.76629h7.74563v3.31956a3.32288,3.32288,0,0,0,3.31957,3.31956H35.82059a3.32287,3.32287,0,0,0,3.31956-3.31956V37.746l1.3566,1.74719a1.408,1.408,0,0,0,2.51622-.8664v-10.523A1.38867,1.38867,0,0,0,42.06469,26.77485Zm-11.22344-15.54a.55326.55326,0,1,1,1.10652-.00145v1.108a.55326.55326,0,0,1-1.10652,0Zm-5.5326,0a.55326.55326,0,1,1,1.10652-.00145v1.108a.55326.55326,0,0,1-1.10652,0Zm-5.5326,0a.55326.55326,0,1,1,1.10652,0h0v1.10653a.55326.55326,0,1,1-1.10652,0Zm-5.5326,0a.55326.55326,0,1,1,1.10652,0h0v1.10653a.55326.55326,0,1,1-1.10652,0Zm-1.65977,1.10653h.55325a1.65978,1.65978,0,0,0,3.31956,0h2.213a1.65978,1.65978,0,0,0,3.31956.00137v-.00137h2.213a1.65978,1.65978,0,0,0,3.31956.00137v-.00137h2.213a1.65978,1.65978,0,0,0,3.31956.00137v-.00137h.55326a1.65978,1.65978,0,0,1,1.65978,1.65978v1.10652H10.9239V14.00119A1.65977,1.65977,0,0,1,12.58368,12.34142Zm0,22.68366A1.65977,1.65977,0,0,1,10.9239,33.3653V16.21423H35.26733v7.74564H31.37294a1.45785,1.45785,0,0,0-1.25092-1.6371l-3.92815-.57594-1.7638-3.5879a1.47831,1.47831,0,0,0-2.66394,0l-1.76877,3.5879-3.92815.577a1.4938,1.4938,0,0,0-.82989,2.545l2.85316,2.79783L17.42193,31.617a1.48329,1.48329,0,0,0,2.15772,1.57348l.74966-.39614v2.23076Zm7.74563-7.74566v4.264l-1.267.66944a.36627.36627,0,0,1-.39669-.02711.37734.37734,0,0,1-.1527-.3823l.71924-4.238a.55327.55327,0,0,0-.15879-.48743l-3.054-2.99923a.38118.38118,0,0,1-.09627-.4.37346.37346,0,0,1,.30983-.26114l4.21583-.6202a.55327.55327,0,0,0,.41606-.30264l1.8927-3.85233a.37179.37179,0,0,1,.67664,0l1.89215,3.85069a.55323.55323,0,0,0,.416.30263l4.2175.62076a.37234.37234,0,0,1,.30817.26059.39506.39506,0,0,1-.01218.28105h-6.607A3.32289,3.32289,0,0,0,20.32931,27.27942ZM41.90645,38.62678a.30152.30152,0,0,1-.53666.18645L39.024,35.79243a.55326.55326,0,0,0-.99033.33915v3.31956a2.213,2.213,0,0,1-2.213,2.213H23.64888a2.21305,2.21305,0,0,1-2.213-2.213V27.27942a2.213,2.213,0,0,1,2.213-2.213H35.82059a2.213,2.213,0,0,1,2.213,2.213h0V30.599a.55326.55326,0,0,0,.99034.33914L41.36868,27.919a.301.301,0,0,1,.53777.18479Z"/><path d="M29.73474,31.15225a2.213,2.213,0,1,0,2.213,2.213,2.213,2.213,0,0,0-2.213-2.213Zm0,3.31955a1.10652,1.10652,0,1,1,1.10652-1.10652h0A1.10652,1.10652,0,0,1,29.73474,34.4718Z"/></svg>