<svg id="Layer_1" data-name="Layer 1" xmlns="http://www.w3.org/2000/svg" viewBox="0 0 140 140"><defs><style>.cls-1{fill:#3880ff;stroke:#3880ff;stroke-miterlimit:10;}</style></defs><title>events</title><path class="cls-1" d="M108.45756,2.79893H111.016a4.6015,4.6015,0,0,1,2.65362,4.81683c-.0449.59342.03633,1.19685-.015,1.78921-.09441,1.09017.31735,1.546,1.45569,1.50765,1.91617-.06455,3.83794-.06525,5.75428-.00091a12.43171,12.43171,0,0,1,9.11985,4.25418,13.74215,13.74215,0,0,1,3.30885,9.67726q-.01395,26.28241-.004,52.56486,0,21.35845.00148,42.71693a13.79466,13.79466,0,0,1-3.47536,9.74622,15.07238,15.07238,0,0,1-6.775,3.91748H15.33206c-.64711-.21169-1.29488-.42141-1.94124-.63539a12.52842,12.52842,0,0,1-8.37821-11.43417Q4.98746,72.3825,5.01417,23.0459a12.683,12.683,0,0,1,8.544-11.45691c2.46362-.82262,4.95736-.67315,7.46054-.68851,3.41934-.021,3.4475-.00524,3.44818-3.453a4.50086,4.50086,0,0,1,2.88963-4.64858H29.9149A4.70955,4.70955,0,0,1,32.56451,7.7392c-.04572.59146.03412,1.19278-.014,1.78385-.08791,1.07971.41711,1.422,1.43842,1.385,1.48564-.05376,2.97571-.048,4.46187-.00212.96589.02983,1.43611-.30841,1.37437-1.32189-.04385-.71979.01333-1.44514-.00873-2.167a4.37887,4.37887,0,0,1,2.89044-4.61814h2.55839a4.74382,4.74382,0,0,1,2.64232,4.95756c-.03271.423-.0055.8508-.00415,1.27638.00591,1.8563.00615,1.8612,1.83809,1.86144q18.57668.00234,37.15335-.00563c3.81884-.0054,3.338.50261,3.33747-3.29376-.00032-2.21081.74778-3.89736,2.87486-4.796h2.5584a4.56076,4.56076,0,0,1,2.66646,4.40728c-.031,3.68863.0169,3.689,3.6836,3.689,3.50307,0,3.52325.00023,3.56419-3.578A4.47551,4.47551,0,0,1,108.45756,2.79893Zm-39.305,40.518q-26.92078,0-53.84158.0004c-.42626,0-.85254.00416-1.27878.00934a.8728.8728,0,0,0-.96537.94558c-.01536.42585-.021.85227-.021,1.27844q-.00135,37.2159.00018,74.43182c0,.46881-.00067.93835.023,1.40633a4.384,4.384,0,0,0,4.36823,4.42545c.51033.028,1.02267.02678,1.53408.0268q50.13279.00171,100.26556-.00074c.5965,0,1.19493-.00022,1.78914-.04477a4.4113,4.4113,0,0,0,3.9528-3.29571,9.842,9.842,0,0,0,.27029-2.534q-.00994-37.40772-.00589-74.81544c-.00007-1.8289-.00419-1.83272-1.86538-1.83282Q96.26513,43.31612,69.15252,43.31694ZM69.19,35.25347q26.73147,0,53.46294-.00028c.469,0,.93819-.01551,1.4068-.0039.77809.01929,1.1899-.29333,1.18583-1.1271-.01683-3.45322.06161-6.90864-.03775-10.35914-.07584-2.63368-1.72961-4.57833-3.99209-4.72291-2.16578-.13841-4.34619-.04624-6.52015-.05908-.77483-.00458-1.04327.42285-1.032,1.13988.014.895.0104,1.79074-.0053,2.6858a4.034,4.034,0,1,1-8.05326.1628c-.04982-.93556-.03538-1.87562-.02114-2.8132.012-.78887-.31527-1.1893-1.1356-1.18213q-2.49382.02181-4.98795-.00169c-.80753-.00779-1.16324.35409-1.14823,1.16255.01978,1.06529.03888,2.134-.02188,3.19666a3.97566,3.97566,0,0,1-7.86994.62815,13.50309,13.50309,0,0,1-.17314-3.05583c-.01892-1.92437-.01212-1.93186-1.93053-1.93217q-19.2492-.00315-38.49841-.0006c-.29839,0-.59676.01066-.89515.0109a.89744.89744,0,0,0-1.01284,1.02665c.00121.98052.01621,1.962-.01994,2.9414a4.03183,4.03183,0,1,1-8.05652.00013c-.039-.93649-.033-1.87594-.01461-2.81339.01579-.80492-.34128-1.1718-1.14985-1.16406q-2.4938.02385-4.98795.00086c-.824-.00746-1.14278.395-1.12541,1.18544.0206.93741.02071,1.87641-.00832,2.81354a4.02079,4.02079,0,1,1-8.03805.21543A27.263,27.263,0,0,1,24.481,20.248c.0311-.939-.3861-1.2993-1.303-1.28248-1.70476.03126-3.41066-.00565-5.11585.01024-3.24075.03021-4.96877,1.72264-5.01224,4.97593-.04044,3.02648-.014,6.05389-.01286,9.08088.00085,2.21611.00387,2.22,2.17839,2.22013Q42.20274,35.25437,69.19,35.25347Z"/><path class="cls-1" d="M54.3299,84.14858c.04329-2.09217.79052-3.31132,2.27547-4.00775a3.76267,3.76267,0,0,1,4.39283.67273c1.44609,1.32022,2.82987,2.7143,4.17,4.14263.68636.73153,1.12276.73347,1.83709.00248,3.18616-3.26051,6.43783-6.4569,9.65212-9.69008a4.32553,4.32553,0,0,1,3.381-1.52447,3.83626,3.83626,0,0,1,3.387,2.16309,3.76571,3.76571,0,0,1-.29175,4.1057A9.38128,9.38128,0,0,1,82.038,81.25728q-6.18412,6.1988-12.3823,12.38354c-2.55251,2.54185-4.607,2.539-7.13864.01774q-3.35115-3.33742-6.69223-6.68493A4.08119,4.08119,0,0,1,54.3299,84.14858Z"/></svg>