<svg id="Layer_1" data-name="Layer 1" xmlns="http://www.w3.org/2000/svg" viewBox="0 0 140 140"><defs><style>.cls-1{fill:#3880ff;stroke:#3880ff;stroke-miterlimit:10;stroke-width:1.02839px;}</style></defs><title>exclusive</title><path class="cls-1" d="M100.95139,137.56319c-4.13192-.00012-8.26386.00727-12.39576-.003-2.32359-.00578-3.19169-.64194-3.90388-2.88019-1.8503-5.815-3.71172-11.62674-5.5037-17.45975-.3781-1.23077-.81557-1.35093-1.67044-.46676a4.61233,4.61233,0,0,1-.54038.42578c-4.766,3.63324-8.64185,3.65716-13.42288.08326-1.86586-1.39475-1.87225-1.39677-2.59282.876q-2.62077,8.26633-5.23457,16.53488c-.71431,2.24361-1.58208,2.88439-3.89984,2.88659q-12.46464.01177-24.92928-.00044c-3.12557-.004-4.43336-1.7592-3.49073-4.76631q5.04357-16.08962,10.17451-32.15158c.42067-1.30765.11144-2.01089-1.02545-2.50982Q30.942,97.44108,29.34,96.81448c-1.02536-.40106-2.07769-.734-3.09865-1.14534-5.71987-2.30431-7.76443-5.95363-6.76708-12.05705.281-1.71957.542-3.44375.88179-5.152a5.23281,5.23281,0,0,0-1.0605-4.52741c-1.26591-1.57328-2.59394-3.09806-3.82378-4.69863-3.69456-4.80825-3.698-8.68563-.0292-13.52541a30.17212,30.17212,0,0,1,2.64028-3.17355,7.68426,7.68426,0,0,0,2.0374-7.82248,22.96238,22.96238,0,0,1-.8084-7.34819,8.67493,8.67493,0,0,1,4.89752-7.16371,34.76088,34.76088,0,0,1,6.25871-2.49133,7.04169,7.04169,0,0,0,4.96934-5.054c.31623-1.1.77084-2.16009,1.16114-3.23883,2.41544-6.67609,6.22066-8.83195,13.22677-7.52013a34.43843,34.43843,0,0,0,5.44151.77849,4.937,4.937,0,0,0,3.44927-1.107c1.44692-1.20313,2.89473-2.40561,4.36055-3.58553,4.93887-3.9756,9.2436-3.9764,14.18012-.00294a38.9189,38.9189,0,0,1,3.265,2.74711c1.92643,1.93606,4.21305,2.22394,6.73866,1.76857q2.57158-.46367,5.15482-.86223a9.12348,9.12348,0,0,1,10.16062,5.133,55.4271,55.4271,0,0,1,2.61428,6.65775,6.30025,6.30025,0,0,0,4.03818,4.01582c1.73283.602,3.47439,1.199,5.15291,1.9335,5.6766,2.484,7.50876,5.96611,6.45957,12.09513-.28623,1.67207-.52016,3.35443-.85636,5.01624a5.23136,5.23136,0,0,0,1.08251,4.5215c1.43149,1.79331,2.93993,3.52869,4.304,5.37138a9.2732,9.2732,0,0,1,.67578,11.15821,24.8986,24.8986,0,0,1-3.65069,4.64976,7.96556,7.96556,0,0,0-2.15535,8.18053,22.10318,22.10318,0,0,1,.78916,7.07514,8.7821,8.7821,0,0,1-5.05679,7.35989,60.06509,60.06509,0,0,1-6.518,2.59377c-3.224,1.28807-3.24043,1.2946-2.21752,4.545q4.68993,14.90245,9.40077,29.79831c.09668.30631.19985.61062.29283.918.96529,3.19165-.27574,4.89851-3.58393,4.90539C109.21526,137.56985,105.08332,137.56332,100.95139,137.56319Zm13.76755-97.34513c.29868-3.29594-.1359-4.07619-2.479-5.04212-1.78112-.73425-3.59718-1.386-5.4095-2.04187a11.70649,11.70649,0,0,1-7.33507-7.33861c-.67707-1.85324-1.35385-3.70871-2.10862-5.53092-.93887-2.26662-2.0041-2.84663-4.42144-2.48011q-2.51646.38154-5.01735.86419a12.37606,12.37606,0,0,1-11.13276-2.969c-1.13329-1.00452-2.30187-1.9721-3.49064-2.91056-2.59206-2.04629-3.70866-2.02972-6.32072-.0054-1.77768,1.37768-3.38326,2.96683-5.25723,4.22742a11.11265,11.11265,0,0,1-7.17138,1.88448c-2.30277-.15067-4.53182-.69452-6.79868-1.02734-2.91217-.42756-3.87522.04545-4.99535,2.79537-.58832,1.44435-1.14439,2.90573-1.63,4.3873a12.496,12.496,0,0,1-8.54459,8.45668A47.99662,47.99662,0,0,0,27.47512,35.476c-1.72685.78067-2.112,1.628-1.98387,3.51647a36.7292,36.7292,0,0,0,.81846,5.29965,12.456,12.456,0,0,1-2.92646,11.52943c-1.09521,1.23665-2.15752,2.50694-3.16554,3.81528-1.7052,2.21326-1.69223,3.46851.03787,5.67256,1.30354,1.66063,2.70959,3.2419,3.9876,4.92122a10.93317,10.93317,0,0,1,2.258,8.79817q-.57071,3.31917-.97113,6.667c-.25615,2.12939.26262,3.032,2.24364,3.89519a40.42246,40.42246,0,0,0,4.50425,1.70528,13.02524,13.02524,0,0,1,9.14594,9.28186c.48461,1.57425,1.14629,3.09718,1.78093,4.62111a2.95173,2.95173,0,0,0,3.1406,1.95345,29.77794,29.77794,0,0,0,5.30248-.77784,12.9849,12.9849,0,0,1,12.46551,3.33336,39.58509,39.58509,0,0,0,3.62511,2.95948c1.90433,1.39819,2.96428,1.41075,4.86244-.0056,1.654-1.23419,3.22964-2.57543,4.81545-3.89867a11.80021,11.80021,0,0,1,10.04834-2.57,56.18743,56.18743,0,0,0,6.39063.95911,3.06979,3.06979,0,0,0,3.34037-2.07845c.64909-1.61745,1.31247-3.23441,1.85-4.89041a12.81382,12.81382,0,0,1,8.7567-8.7961,49.522,49.522,0,0,0,4.76325-1.7996c1.9791-.85829,2.46861-1.75615,2.24239-3.89793a25.19507,25.19507,0,0,0-.54951-3.6683c-1.39226-5.37633-.336-10.07465,3.63868-14.05934a25.16357,25.16357,0,0,0,2.19029-2.65321c1.74133-2.30631,1.73906-3.49554-.05391-5.78719-1.32919-1.69887-2.77172-3.31028-4.07387-5.02875a10.74289,10.74289,0,0,1-2.13833-8.56242C114.18256,43.76075,114.50527,41.58436,114.71894,40.21806ZM37.73261,108.23277a4.04972,4.04972,0,0,0-.28612.51861c-2.25645,7.11973-4.498,14.24422-6.77432,21.35757-.32569,1.01776-.02727,1.26918.98073,1.26335,5.73084-.03311,11.46231-.04819,17.19274.01056a1.71535,1.71535,0,0,0,1.9118-1.47763c1.67563-5.42883,3.40369-10.84146,5.1107-16.26062.44143-1.40139.37425-1.56311-1.0805-1.39694-2.04454.23354-4.0662.66044-6.10714.9338-3.76934.50483-7.26067.0932-9.767-3.23651C38.53168,109.43762,38.19068,108.89952,37.73261,108.23277Zm64.95293-.13774c-.452.67464-.72313,1.09221-1.00707,1.50084a8.16657,8.16657,0,0,1-6.02706,3.66977,15.97364,15.97364,0,0,1-4.11318-.09339c-2.08141-.3149-4.13235-.82055-6.24229-.96226-.9284-.06234-1.25374.188-.94055,1.16266Q87.047,121.74871,89.666,130.148a1.49034,1.49034,0,0,0,1.67,1.22417c5.777-.03283,11.55445-.04228,17.33122.0057,1.19313.00993,1.27233-.407.95683-1.38224-1.495-4.62129-2.95018-9.25549-4.41568-13.88631C104.3951,113.53949,103.5894,110.96729,102.68554,108.095Z"/><path class="cls-1" d="M58.56244,81.6456a3.01481,3.01481,0,0,1-3.13377-3.701c.674-3.18439,1.38341-6.36338,2.1828-9.51806a2.51106,2.51106,0,0,0-.75217-2.7871c-2.11626-2.03368-4.10043-4.20422-6.15872-6.29907a3.152,3.152,0,0,1-1.07315-3.45293A3.35283,3.35283,0,0,1,52.654,53.65847c2.90194-.42475,5.79136-.94453,8.70112-1.30131a2.15933,2.15933,0,0,0,1.886-1.501c1.27161-2.79831,2.62835-5.55786,3.9088-8.35226a3.16165,3.16165,0,0,1,6.039.00382c1.28122,2.79408,2.637,5.55409,3.90791,8.35273A2.15908,2.15908,0,0,0,78.986,52.35756c2.90984.35586,5.79994.87063,8.70145,1.29823a3.35491,3.35491,0,0,1,3.02176,2.23784A3.16279,3.16279,0,0,1,89.632,59.34755C87.60717,61.411,85.65868,63.553,83.56749,65.546a2.68042,2.68042,0,0,0-.8074,3.02139c.76637,2.87828,1.34939,5.8049,2.04449,8.70286a3.22187,3.22187,0,0,1-4.872,3.82149c-2.85164-1.47778-5.72783-2.90922-8.55821-4.42634a2.29844,2.29844,0,0,0-2.4287.01231c-2.79148,1.4926-5.62169,2.91285-8.43917,4.3567A3.73516,3.73516,0,0,1,58.56244,81.6456Zm11.6095-30.97192c-.87555,1.83269-1.6657,3.28726-2.27446,4.81415A4.047,4.047,0,0,1,64.264,58.19126c-1.31989.14732-2.62645.413-3.946.565-1.031.11879-1.07957.51708-.42933,1.18962q1.72237,1.78144,3.46071,3.54746a3.36,3.36,0,0,1,.94134,3.39955c-.39609,1.55458-.72834,3.1254-1.09,4.68879-.06161.26639-.19337.56864.01469.786.29951.31282.60006.01362.86329-.11932,1.10547-.55835,2.24241-1.07151,3.287-1.72951a4.78152,4.78152,0,0,1,5.54572-.03219c1.08379.68181,2.26421,1.21074,3.40612,1.79884.23583.12144.50913.3257.76085.1319.25089-.19315.13466-.50474.07355-.77052-.35953-1.56384-.68643-3.13632-1.09338-4.68778a3.41377,3.41377,0,0,1,.97305-3.51655c1.16589-1.17037,2.31968-2.35288,3.47318-3.53551.61316-.62865.53248-1.00616-.3929-1.13679-1.54265-.21776-3.07708-.49451-4.62062-.70495A3.51313,3.51313,0,0,1,72.6,55.82231C71.871,54.2,71.08542,52.60321,70.17194,50.67368Z"/></svg>