<?xml version="1.0" encoding="utf-8"?>
<!-- Generator: Adobe Illustrator 23.0.5, SVG Export Plug-In . SVG Version: 6.00 Build 0)  -->
<svg version="1.1" id="Layer_1" xmlns="http://www.w3.org/2000/svg" xmlns:xlink="http://www.w3.org/1999/xlink" x="0px" y="0px"
	 viewBox="0 0 140 140" style="enable-background:new 0 0 140 140;" xml:space="preserve">
<style type="text/css">
	.st0{fill:#3880FF;stroke:#3880FF;stroke-width:3;stroke-miterlimit:10;}
	.st1{fill:#3880FF;stroke:#3880FF;stroke-miterlimit:10;}
	.st2{fill:#3880FF;stroke:#3880FF;stroke-width:2;stroke-miterlimit:10;}
</style>
<title>free-ads</title>
<path class="st0" d="M1077.5-1911.2c0.8,0.6,1.2,1.6,1.1,2.6c-0.1,1.1-0.9,2-1.9,2.2c-0.5,0.1-1,0.2-1.5,0.2
	c-6.6,0-13.2-0.1-19.7-0.1c-0.9,0.1-1.8-0.1-2.6-0.7c-0.9-0.7-1.2-1.9-0.8-2.9c0.4-1.2,1.5-1.9,2.7-1.8c3.9,0,7.7,0,11.6,0.1
	c2.9,0,5.9,0,8.8,0.1C1076-1911.8,1076.8-1911.6,1077.5-1911.2z"/>
<path class="st1" d="M1050.4-1894.9c2.4,2.3,4.8,4.5,7.1,6.8c2.7,2.6,5.4,5.2,8,7.8c1.3,1.3,1.5,2.8,0.4,4c-1.1,1.2-2.8,1.2-4.2-0.1
	c-2.1-1.9-4.1-4-6.2-5.9c-2.8-2.7-5.7-5.4-8.5-8.2c-1.6-1.6-1.3-3.9,0.6-4.7C1048.7-1895.6,1049.6-1895.5,1050.4-1894.9z"/>
<path class="st0" d="M1064.8-1939.3c-2.4,2.9-4.7,5.8-7.1,8.6c-1.4,1.7-2.8,3.3-4.1,5c-0.4,0.5-0.8,0.9-1.2,1.4
	c-1,1.1-2.6,1.2-3.7,0.3c-1.2-1-1.3-2.8-0.2-3.9l0,0c1.6-2,3.2-4,4.9-5.9c2.4-2.9,4.8-5.9,7.3-8.8c0.9-1.2,2.5-1.4,3.7-0.5l0,0
	C1065.5-1942.2,1065.7-1940.5,1064.8-1939.3z"/>
<g>
	<path class="st2" d="M120.6,101.2c-0.9,1.5-2,2.8-3.3,4c-6.3,6.3-12.5,7.1-20.4,2.6c-9.8-5.4-19.5-10.8-29.1-16.2
		c-3.4-1.8-6.7-3.8-10.2-5.7c-2-1.1-2-1.1-2,1.2c0.1,11.9,0.3,23.7,0.4,35.6c0,5.9-2.4,10.4-7.5,13.3c-4.6,2.6-10.5,2.2-14.8-1.1
		c-4.2-2.9-5.8-7.4-5.9-12.4c-0.1-12.8-0.3-25.7-0.4-38.6c0-1.3,0.3-2.9-0.3-3.8c-0.7-1.1-2.4-0.5-3.6-0.7C8.2,76.6,1.4,60,7.9,46.9
		C11.7,39,18.4,35,27.1,34.7c5.5-0.3,11.2-0.1,16.7-0.1c1.3,0,2.6-0.4,3.7-1.1c16.9-9.8,33.7-19.4,50.5-29.3c5.3-3,12-2.2,16.5,1.8
		c5.1,4.4,8.3,10.2,10.7,16.3c4.6,12.1,6.2,24.8,5.9,37.7c0,10.8-2,21.5-5.7,31.5C124.3,94.9,122.7,98.2,120.6,101.2z M115.5,95.7
		c1.7-2.6,3.2-5.4,4.1-8.4c6.6-20.7,6.1-42.8-1.5-63.3c-1.5-4.2-3.8-8-7-11.3c-4.1-4.1-9.1-4.1-13.1,0.1c-3.3,3.6-5.7,7.9-7.1,12.5
		c-6.5,19.8-6.3,39.5-0.5,59.3c1.5,5.7,4.2,10.8,8,15.2c2.8,3.3,7.5,4,11.2,1.6C112.2,100,114,98.1,115.5,95.7z M85.3,20
		c-0.1,0-0.4,0.1-0.5,0.1c-11.1,6.5-22.1,12.9-33.4,19.4c-0.7,0.4-1.1,1.1-1.1,1.8c0.1,10.5,0.3,21,0.4,31.5c0,0.8,0.4,1.5,1.1,1.7
		c9.9,5.5,19.8,10.9,29.5,16.5c1.6,0.8,3,1.7,4.7,2.5C77.1,70,76.8,43.9,85.3,20z M19.8,70.5c2.2,1.6,5,2.4,7.8,2.2
		c4.9,0,9.9-0.1,14.8-0.1c1.2,0,1.5-0.4,1.5-1.5c-0.1-9.4-0.3-18.6-0.3-27.9c0-1.2-0.4-1.6-1.6-1.6c-4.7,0.1-9.6,0.1-14.4,0.3
		c-6.6,0-12.4,4.4-14.1,10.7C11.2,59.3,13.8,66.7,19.8,70.5z M47.8,127.5c0.8-1.5,1.2-3.2,1.2-4.7c-0.1-13.2-0.3-26.5-0.4-39.7
		c0-2.2-0.9-3.2-3.2-3.2c-2.9,0-5.8,0.1-8.7,0c-1.7-0.1-2.1,0.5-2.1,2.1c0.1,12.8,0.3,25.7,0.4,38.5c-0.1,1.6,0,3.2,0.3,4.7
		c0.7,2.6,2.8,4.7,5.5,5.1C43.5,130.9,46.3,129.7,47.8,127.5z"/>
	<path class="st2" d="M108.1,41.4c8.6,5.5,10.9,17,5.3,25.6c-2.9,4.4-7.5,7.4-12.7,8.2c-0.9,0.1-2,0.3-2.9,0.1
		c-1.8-0.1-3.2-1.6-3.3-3.3c-0.1-1.8,1.2-3.6,3-3.7c1.5-0.1,2.8-0.4,4.2-0.8c5.9-2.2,9-8.7,6.7-14.6c-1.6-4.1-5.3-7-9.6-7.4
		c-0.5,0-1.1,0-1.6-0.1c-1.8-0.1-3.3-1.7-3.2-3.6c0-1.8,1.5-3.4,3.3-3.4h0.1C101.4,38.1,105,39.1,108.1,41.4z"/>
</g>
</svg>
