<svg id="Layer_1" data-name="Layer 1" xmlns="http://www.w3.org/2000/svg" viewBox="0 0 52 52"><defs><style>.cls-1{fill:none;stroke:#ddd;stroke-miterlimit:10;}.cls-2{fill:#ffdf00;}.cls-2,.cls-3,.cls-4,.cls-5{fill-rule:evenodd;}.cls-3{fill:#f44335;}.cls-4{fill:#ffda44;}.cls-5{fill:#eee1dc;}.cls-6{fill:#212121;}</style></defs><title>free-ads</title><path class="cls-1" d="M26.0813,1.17137h0a25.00912,25.00912,0,0,1,25,25h0a25.00912,25.00912,0,0,1-25,25h0a25.00912,25.00912,0,0,1-25-25h0a25.00912,25.00912,0,0,1,25-25Z"/><path class="cls-2" d="M21.248,32.40471a42.32859,42.32859,0,0,1,15.03333-4l-9.7-15.13334a42.68578,42.68578,0,0,1-9.66666,12.4Z"/><path class="cls-3" d="M36.2813,28.40471a1.401,1.401,0,0,0,2.36667-1.5h0L28.948,11.738a1.401,1.401,0,0,0-2.36667,1.5Z"/><path class="cls-4" d="M17.5813,36.30471l3.3-2.1a1.29316,1.29316,0,0,0,.4-1.76667L16.948,25.67137a1.29317,1.29317,0,0,0-1.76667-.4l-3.3,2.1a1.29315,1.29315,0,0,0-.4,1.76666l.56667.9,3.16667,4.96667.56666.9A1.33327,1.33327,0,0,0,17.5813,36.30471Z"/><path class="cls-5" d="M13.6813,35.97137l1.5-.96666L12.01464,30.038l-1.5.96667a1.06918,1.06918,0,0,0-.33334,1.46666L12.21464,35.638A1.08278,1.08278,0,0,0,13.6813,35.97137Z"/><path class="cls-5" d="M21.7813,42.20471l2.63334-1.7A.42522.42522,0,0,0,24.548,39.938h0l-3.7-5.76667-3.3,2.1-.06667.03334,3.7,5.76666a.43423.43423,0,0,0,.6.13334Z"/><path d="M29.3813,11.47137a1.9262,1.9262,0,0,0-2.6-.6,1.82492,1.82492,0,0,0-.83333,1.2,1.98616,1.98616,0,0,0,.1,1.16667,42.5672,42.5672,0,0,1-9.1,11.7,1.75345,1.75345,0,0,0-2.06667-.1l-3.3,2.1a1.81861,1.81861,0,0,0-.76666,1.1,1.7087,1.7087,0,0,0,.23333,1.33334l.33333.5-1.1.73333a1.52187,1.52187,0,0,0-.66667.96666,1.60629,1.60629,0,0,0,.2,1.16667L11.848,35.90471a1.52553,1.52553,0,0,0,1.3.7,1.84285,1.84285,0,0,0,.83334-.23333l1.1-.7.33333.5a1.80625,1.80625,0,0,0,1.5.8,1.951,1.951,0,0,0,.43333-.06667L20.81464,42.338a.99378.99378,0,0,0,.56667.4c.06666,0,.13333.03334.2.03334a1.39691,1.39691,0,0,0,.5-.13334l2.63333-1.7a.87855.87855,0,0,0,.26667-1.23333l-3.5-5.43334a1.79441,1.79441,0,0,0,.4-1.63333,40.90422,40.90422,0,0,1,14.2-3.73333,1.92758,1.92758,0,0,0,2.66667.16666A1.8921,1.8921,0,0,0,39.0813,26.638Zm-2.76666,2.73334L35.448,27.97137a42.69016,42.69016,0,0,0-14.03333,3.83334L17.548,25.738a42.84612,42.84612,0,0,0,9.06667-11.53333Zm-13.2,21.36666a.584.584,0,0,1-.8-.16666L10.5813,32.238a.54479.54479,0,0,1,.16667-.76667h0l1.1-.7,2.63333,4.13334Zm2.76666.06667-.56666-.9h0L12.448,29.77137a.03264.03264,0,0,0-.03333-.03333l-.56667-.86666a.64631.64631,0,0,1-.1-.6.75448.75448,0,0,1,.33333-.5l3.3-2.1a.67.67,0,0,1,.43334-.13333.24979.24979,0,0,1,.16666.03333.75444.75444,0,0,1,.5.33334l4.33334,6.76666a.801.801,0,0,1-.23334,1.1l-.16666.13334-3.1,1.96666A.84808.84808,0,0,1,16.1813,35.638Zm5.4,6.13333-3.4-5.3L20.71464,34.838l3.36666,5.3Zm16.4-13.33333a.942.942,0,0,1-1.26666-.26667L26.9813,13.00471a1.02778,1.02778,0,0,1-.13333-.7.99378.99378,0,0,1,.4-.56667,1.02772,1.02772,0,0,1,.7-.13333.99379.99379,0,0,1,.56666.4L38.248,27.17137A.92345.92345,0,0,1,37.9813,28.438Z"/><path d="M22.71464,28.57137a.50827.50827,0,0,0,.4.23333.78453.78453,0,0,0,.26666-.06666.45122.45122,0,0,0,.13334-.66667l-1.86667-2.9a.48074.48074,0,0,0-.8.53334h0Z"/><path d="M29.248,25.47137a.50828.50828,0,0,0,.4.23334.7846.7846,0,0,0,.26667-.06667.45121.45121,0,0,0,.13333-.66667L26.8813,20.00471a.48074.48074,0,1,0-.8.53333Z"/><path d="M25.71464,26.67137a.50828.50828,0,0,0,.4.23334.78455.78455,0,0,0,.26666-.06667.45122.45122,0,0,0,.13334-.66667l-1.86667-2.9a.45121.45121,0,0,0-.66666-.13333.45608.45608,0,0,0-.13334.66667h0Z"/><path class="cls-6" d="M36.448,17.90471a.7846.7846,0,0,0,.26667-.06667l2.9-1.86667a.48074.48074,0,0,0-.53334-.8h0l-2.9,1.86667a.45121.45121,0,0,0-.13333.66667.43644.43644,0,0,0,.4.2Z"/><path class="cls-6" d="M33.71464,14.138c.03333,0,.1.03333.13333.03333a.46351.46351,0,0,0,.46667-.36666l.93333-3.3a.48534.48534,0,1,0-.93333-.26667h0l-.93334,3.3a.45431.45431,0,0,0,.33334.6Z"/><path class="cls-6" d="M42.21464,20.60471l-3.43334.1a.48362.48362,0,1,0,.03334.96666h0l3.43333-.1a.48362.48362,0,1,0-.03333-.96666Z"/></svg>