<?xml version="1.0" encoding="utf-8"?>
<!-- Generator: Adobe Illustrator 23.0.5, SVG Export Plug-In . SVG Version: 6.00 Build 0)  -->
<svg version="1.1" id="Layer_1" xmlns="http://www.w3.org/2000/svg" xmlns:xlink="http://www.w3.org/1999/xlink" x="0px" y="0px"
	 viewBox="0 0 140 140" style="enable-background:new 0 0 140 140;" xml:space="preserve">
<style type="text/css">
	.st0{fill:#0065CE;stroke:#0065CE;stroke-width:2.9444;stroke-miterlimit:10;}
</style>
<title>general</title>
<path class="st0" d="M15,73.3c0-17.7,0-34.7,0-52.4C15,11.4,21.5,3.8,30.3,2c1.2,0,1.8,0,2.9,0C58,2,82.7,2,108,2
	c10,0,18.3,8.2,18.3,18.3c0,35.3,0,71.3,0,106.6c0,4.1-2.4,8.2-6.5,10c-3.5,1.8-8.2,1.2-11.8-1.8c-8.8-7.7-17.7-15.9-27.1-23.6
	c-2.4-2.4-4.7-4.1-7.1-6.5c-1.8-1.8-4.1-2.4-6.5-0.6l-0.6,0.6c-7.1,6.5-13.5,12.4-20.6,18.3c-4.7,4.1-8.8,8.2-13.5,11.8
	c-2.9,2.9-7.7,3.5-11.2,1.8c-4.1-1.8-6.5-5.3-6.5-9.4C15,109.2,15,91.5,15,73.3L15,73.3z M118.6,73.9L118.6,73.9c0-17.7,0-35.3,0-53
	c0-6.5-4.7-11.2-11.2-11.2l0,0c-24.7,0-49.5,0-74.2,0c-1.8-0.6-3.5,0-4.7,0.6c-4.1,1.8-7.1,6.5-7.1,11.2c0,34.7,0,70.1,0,104.8
	c0,0.6,0,0.6,0,1.2c0,1.8,1.2,2.9,2.4,3.5c1.2,0.6,2.9,0.6,4.1-0.6c0.6-0.6,1.8-1.2,2.4-2.4c10.6-9.4,21.2-18.8,32.4-28.3
	c4.1-4.1,10.6-4.1,14.7,0c5.9,5.3,12.4,10.6,18.3,16.5c5.3,4.7,10.6,9.4,15.9,13.5c1.2,1.2,3.5,1.8,5.3,0.6c1.2-1.2,1.8-2.4,1.8-4.1
	C118.6,108.6,118.6,90.9,118.6,73.9L118.6,73.9z"/>
</svg>
