<?xml version="1.0" encoding="utf-8"?>
<!-- Generator: Adobe Illustrator 23.0.5, SVG Export Plug-In . SVG Version: 6.00 Build 0)  -->
<svg version="1.1" id="Layer_1" xmlns="http://www.w3.org/2000/svg" xmlns:xlink="http://www.w3.org/1999/xlink" x="0px" y="0px"
	 viewBox="0 0 140 140" style="enable-background:new 0 0 140 140;" xml:space="preserve">
<style type="text/css">
	.st0{fill:#0065CE;}
	.st1{fill:#0065CE;stroke:#0065CE;stroke-width:3;stroke-miterlimit:10;}
</style>
<title>health</title>
<g>
	<path class="st0" d="M1131.9,70.7c1-2.1,2.6-3,4.9-2.8c1.1,0.1,2.2,0,3.3,0c1,0,1.1-0.2,0.7-1.1c-1.6-3.4-2.6-7-3-10.8
		c-1.1-10.4,1.5-19.7,8.2-27.8c6.3-7.6,14.5-12,24.3-12.9c11.2-1.1,21,2.3,29.2,10.1c0.2,0.2,0.3,0.3,0.5,0.5c1.6,1.6,1.3,1.6,3,0
		c7.2-7,15.8-10.7,25.9-10.7c18-0.1,33.5,13.3,36.1,31c1,7.1,0.2,14.1-2.9,20.7c-0.4,0.9-0.3,1.2,0.7,1.1c1.4-0.1,2.8,0,4.2,0
		c2.3,0.1,4,1.8,4,4.1c0,2.3-1.7,4.2-4.1,4.2c-3.3,0-6.6,0-9.9,0c-0.8,0-1.4,0.3-2,0.9c-16.6,16.7-33.3,33.3-50,50
		c-0.9,0.9-1.7,1.7-3.1,1.8c-1.6,0.2-2.8-0.5-4-1.6c-7.7-7.8-15.5-15.5-23.2-23.2c-9-9-18-18-26.9-27c-0.6-0.6-1.2-0.9-2-0.9
		c-3,0-6-0.1-9,0c-2.3,0.1-3.9-0.8-4.9-2.8C1131.9,72.5,1131.9,71.6,1131.9,70.7z M1241.1,67.8c3,0,6-0.1,8.9,0c1.3,0,2-0.4,2.6-1.5
		c3.6-6.1,4.9-12.6,3.8-19.5c-3.2-19.7-26.1-29.8-42.8-18.9c-3.1,2-5.5,4.7-8.1,7.2c-3.2,3.2-5.1,3.2-8.3,0
		c-1.4-1.4-2.7-2.8-4.1-4.1c-5.2-4.9-11.5-7.4-18.7-7.5c-8.4-0.1-15.6,3.1-21.3,9.3c-8.4,9.1-9.6,23.7-2.8,33.9
		c0.5,0.7,0.9,1.1,1.8,1.1c4.2,0,8.4,0,12.6,0c0.8,0,1.3-0.2,1.6-1.1c0.4-1.2,1-2.4,1.5-3.6c2.7-6.4,5.4-12.8,8.1-19.3
		c0.7-1.7,1.8-3,3.8-3.2c2.1-0.2,3.5,0.9,4.4,2.8c5.3,10.6,10.7,21.1,16.1,31.7c0.2,0.4,0.3,1,0.7,1.1c0.6,0,0.7-0.7,0.9-1.1
		c4-6.9,8-13.9,11.9-20.8c2.2-3.8,5.7-3.8,8.1-0.2c2.7,4.1,5.3,8.3,7.9,12.5c0.6,0.9,1.2,1.2,2.2,1.2
		C1235,67.8,1238,67.8,1241.1,67.8z M1180.5,55.3c-0.5,0.4-0.6,1-0.8,1.5c-2.3,5.4-4.6,10.8-6.8,16.2c-0.9,2.1-2.3,3.2-4.7,3.1
		c-2.7-0.1-5.4,0-8.1,0c-0.3,0-0.7-0.2-1,0.3c0.2,0.2,0.3,0.3,0.4,0.5c13.6,13.6,27.2,27.2,40.8,40.9c0.9,0.9,1.4,0.5,2-0.2
		c13.4-13.4,26.8-26.9,40.3-40.3c0.3-0.3,0.7-0.5,0.9-1.1c-0.5,0-0.9-0.1-1.3-0.1c-4.5,0-9-0.1-13.4,0c-2,0-3.4-0.7-4.5-2.4
		c-1.8-2.9-3.6-5.7-5.4-8.6c-0.8-1.2-0.8-1.2-1.6,0.1c-4.1,7.2-8.2,14.3-12.3,21.5c-1,1.7-2.1,3-4.3,3c-2.1-0.1-3.2-1.4-4.1-3.1
		c-5.1-10-10.2-20.1-15.3-30.1C1181.1,56.1,1181,55.6,1180.5,55.3z"/>
</g>
<g>
	<path class="st1" d="M69.7,133.6c-2.7,0-5.6-0.9-7.7-2.9c-5.2-4.5-10.4-8.8-14.9-12.6C34,106.8,22.5,97.1,14.4,87.5
		c-9.5-11.3-14-22.1-14-34c0-11.7,4.1-22.5,11.5-30.4c7.4-8.1,17.8-12.6,29-12.6c8.3,0,16.2,2.7,23,7.9c2,1.6,4.1,3.4,5.9,5.4
		c1.8-2,3.8-3.8,5.9-5.4c6.8-5.2,14.4-7.9,23-7.9c11.3,0,21.4,4.5,29,12.6c7.4,7.9,11.5,18.7,11.5,30.4c0,11.9-4.5,22.7-14,34
		c-8.1,9.7-19.6,19.4-32.9,30.6c-4.5,3.8-9.7,8.1-14.9,12.6C75.4,132.5,72.4,133.6,69.7,133.6z M40.9,18.1c-9,0-17.3,3.6-23.2,10.1
		c-6.1,6.5-9.2,15.3-9.2,25c0,9.9,3.8,19.1,11.9,29c7.7,9.2,18.9,18.7,32,29.7c4.5,3.8,9.7,8.1,14.9,12.8c1.4,1.1,3.6,1.1,5,0
		c5.4-4.5,10.4-9,14.9-12.8c13.1-11,24.3-20.5,32-29.7c8.1-9.9,11.9-19.1,11.9-29c0-9.7-3.4-18.5-9.2-25
		c-6.1-6.5-14.2-10.1-23.2-10.1c-6.8,0-12.8,2-18,6.3c-2.3,1.6-4.1,3.6-6.1,5.9c-1.1,1.4-2.9,2.3-4.7,2.3l0,0
		c-1.8,0-3.6-0.9-4.7-2.3c-1.8-2.3-3.8-4.3-6.1-5.9C53.8,20.4,47.7,18.1,40.9,18.1z"/>
</g>
</svg>
