<svg id="Layer_1" data-name="Layer 1" xmlns="http://www.w3.org/2000/svg" xmlns:xlink="http://www.w3.org/1999/xlink" viewBox="0 0 150 150"><defs><style>.cls-1{fill:url(#Degradado_sin_nombre_3);}.cls-2{fill:#fff;}</style><linearGradient id="Degradado_sin_nombre_3" x1="47.56961" y1="-295.28317" x2="237.64073" y2="-105.21205" gradientTransform="translate(-144.9767 -47.052) rotate(90)" gradientUnits="userSpaceOnUse"><stop offset="0.0011" stop-color="#ffe185"/><stop offset="0.20936" stop-color="#ffbb36"/><stop offset="0.37646" stop-color="#ff5176"/><stop offset="0.52382" stop-color="#f63395"/><stop offset="0.73944" stop-color="#a436d2"/><stop offset="1" stop-color="#5f4eed"/></linearGradient></defs><title>Instagram</title><path class="cls-1" d="M1.82461,110.5558l-.0005-70.07946a38.557,38.557,0,0,1,38.4442-38.4442l70.07966.00051a38.55623,38.55623,0,0,1,38.44355,38.44369l.00035,70.07946A38.557,38.557,0,0,1,110.348,149l-70.07966-.0005A38.55617,38.55617,0,0,1,1.82461,110.5558Z"/><path class="cls-2" d="M98.118,47.82a5.05116,5.05116,0,1,0,5.05141,5.05091A5.05121,5.05121,0,0,0,98.118,47.82Z"/><path class="cls-2" d="M75.66185,54.29773A21.21834,21.21834,0,1,0,96.88019,75.51607,21.24257,21.24257,0,0,0,75.66185,54.29773Zm0,34.81006A13.59172,13.59172,0,1,1,89.25307,75.51607,13.607,13.607,0,0,1,75.66185,89.10779Z"/><path class="cls-2" d="M92.50676,118.59605H58.10781A25.909,25.909,0,0,1,32.22807,92.7163V58.31584A25.90865,25.90865,0,0,1,58.10781,32.4361h34.399A25.90994,25.90994,0,0,1,118.388,58.31584V92.7163A25.91027,25.91027,0,0,1,92.50676,118.59605ZM58.10781,40.54218A17.79315,17.79315,0,0,0,40.33364,58.31584V92.7163a17.79358,17.79358,0,0,0,17.77417,17.77417h34.399A17.79444,17.79444,0,0,0,110.28194,92.7163V58.31584A17.794,17.794,0,0,0,92.50676,40.54218Z"/></svg>