<svg id="Layer_1" data-name="Layer 1" xmlns="http://www.w3.org/2000/svg" xmlns:xlink="http://www.w3.org/1999/xlink" viewBox="0 0 150 150"><defs><style>.cls-1{fill:url(#Degradado_sin_nombre_10);}.cls-2{fill:#fff;}</style><linearGradient id="Degradado_sin_nombre_10" x1="5.40468" y1="-234.59497" x2="129.83137" y2="-110.16828" gradientTransform="translate(-97.3192 7.8712) rotate(90)" gradientUnits="userSpaceOnUse"><stop offset="0" stop-color="#007bb8"/><stop offset="1" stop-color="#0044e9"/></linearGradient></defs><title>Linkedin</title><path class="cls-1" d="M1.552,110.54185V40.437A38.571,38.571,0,0,1,40.01015,1.97881h70.1049A38.57091,38.57091,0,0,1,148.57269,40.437l.0005,70.1054A38.57221,38.57221,0,0,1,110.11505,149l-70.1049-.0005A38.57091,38.57091,0,0,1,1.552,110.54185Z"/><path class="cls-2" d="M43.58348,61.50969H58.12174v46.7012H43.58348Zm7.27144-23.20712a8.41679,8.41679,0,1,1-8.42756,8.41063,8.41682,8.41682,0,0,1,8.42756-8.41063"/><path class="cls-2" d="M67.23,61.50969H81.15431v6.38792h.19046c1.94158-3.67525,6.67644-7.544,13.74613-7.544,14.69689,0,17.407,9.66582,17.407,22.24351v25.61381H97.992v-22.705c0-5.42021-.10576-12.38466-7.54456-12.38466-7.55637,0-8.70889,5.89919-8.70889,11.98885v23.10084H67.23Z"/></svg>