<svg id="Layer_1" data-name="Layer 1" xmlns="http://www.w3.org/2000/svg" viewBox="0 0 140 140"><defs><style>.cls-1{fill:#3880ff;stroke:#3880ff;stroke-miterlimit:10;stroke-width:1.14359px;}</style></defs><title>log-in</title><path class="cls-1" d="M5.13713,70.543c0-9.01418-.03634-18.02854.00758-27.04251A38.389,38.389,0,0,1,37.41529,5.86312a46.37439,46.37439,0,0,1,8.41544-.41252c5.4638.12528,10.94315-.37633,16.39134.3177a37.23719,37.23719,0,0,1,17.73172,7.25757,5.14485,5.14485,0,0,1-5.90414,8.42688,28.73568,28.73568,0,0,0-13.155-5.42093c-5.59869-.66542-11.23357-.39837-16.85674-.24875a32.12238,32.12238,0,0,0-9.97076,1.61713A28.17381,28.17381,0,0,0,15.54053,42.677c-.3727,17.6094-.07361,35.218-.17234,52.8264-.04262,7.6026,1.86625,14.55046,7.0503,20.32174a27.08156,27.08156,0,0,0,19.54883,9.46571,153.77828,153.77828,0,0,0,17.17384.02036,27.27162,27.27162,0,0,0,14.07574-5.05843,6.05678,6.05678,0,0,1,4.17958-1.43647,5.17381,5.17381,0,0,1,2.48109,9.40856c-5.03044,3.728-10.61847,6.413-16.82921,7.03587-8.91151.89362-17.93021,1.25295-26.793-.23083-16.16316-2.706-29.037-16.72532-30.84217-32.92891-.48679-4.36959-.22909-8.74227-.27193-13.113C5.081,82.84022,5.126,76.69138,5.126,70.543Z"/><path class="cls-1" d="M47.64268,65.47217q40.79517.0082,81.59035.00948c3.89877.00012,6.29443,1.96629,6.27421,5.14179-.02012,3.16112-2.41426,5.08354-6.33917,5.08364q-40.7951-.00771-81.59021.01159c-.58956.00029-1.233-.21279-1.88507.27842a49.50425,49.50425,0,0,0,5.91787,5.1198c4.95134,3.98443,9.95455,7.90432,14.9226,11.86809,2.9088,2.32081,3.0238,6.12552.2828,8.33181-1.98323,1.5963-4.43711,1.55228-6.74317-.26735q-8.834-6.97012-17.6002-14.02463a43.58109,43.58109,0,0,1-7.302-7.03081,14.48043,14.48043,0,0,1-2.08937-15.41916A17.94188,17.94188,0,0,1,37.61682,58.463c7.2658-6.74473,15.29438-12.55693,23.0215-18.73734a4.54431,4.54431,0,0,1,3.53338-.94457,4.94854,4.94854,0,0,1,4.38926,3.6914,5.03607,5.03607,0,0,1-1.956,5.67495c-5.49872,4.38445-11.02147,8.73886-16.50931,13.13686a31.1143,31.1143,0,0,0-4.42056,3.94906A3.43279,3.43279,0,0,0,47.64268,65.47217Z"/></svg>