<svg id="Layer_1" data-name="Layer 1" xmlns="http://www.w3.org/2000/svg" viewBox="0 0 52 52"><defs><style>.cls-1{fill:none;stroke:#ddd;stroke-miterlimit:10;}.cls-2{fill:#ffda44;}.cls-2,.cls-3,.cls-4{fill-rule:evenodd;}.cls-4{fill:#ff5023;}</style></defs><title>message-board</title><path class="cls-1" d="M26.09045,1.0479h0a25,25,0,0,1,25,25v.00005a25,25,0,0,1-25,25h0a25,25,0,0,1-25-25v-.00005a25,25,0,0,1,25-25Z"/><path class="cls-2" d="M24.6175,39.63191a14.36943,14.36943,0,0,1-7.90171-2.35334,11.55223,11.55223,0,0,1-6.311,1.67838.17728.17728,0,0,1-.12783-.30127,7.07439,7.07439,0,0,0,2.25547-5.56055A14.43889,14.43889,0,1,1,24.6175,39.63191Z"/><path class="cls-2" d="M30.70173,41.5959a11.12328,11.12328,0,0,0,6.11651-1.82167,8.90824,8.90824,0,0,0,4.74694,1.29792.19476.19476,0,0,0,.14361-.329,5.44846,5.44846,0,0,1-1.65233-4.20728,11.1768,11.1768,0,1,0-9.35471,5.06Z"/><path class="cls-3" d="M40.401,40.26156a6.01114,6.01114,0,0,1-1.13363-3.79293.67414.67414,0,0,1,.10637-.3653,10.441,10.441,0,1,0-3.027,3.02815.643.643,0,0,1,.65041-.03284A8.54176,8.54176,0,0,0,40.401,40.26156ZM17.16634,36.44093a.64368.64368,0,0,0-.65041-.03286,10.779,10.779,0,0,1-4.83533,1.5443A7.48794,7.48794,0,0,0,13.34,32.87407a.64669.64669,0,0,0-.10333-.36525A13.56931,13.56931,0,1,1,37.4954,20.87544,11.72959,11.72959,0,0,0,22.08062,38.41825a13.53332,13.53332,0,0,1-4.91426-1.97733Zm25.31038,4.75615a.64377.64377,0,0,1-.59262.40591,9.41562,9.41562,0,0,1-5.15142-1.19194,11.72435,11.72435,0,0,1-12.94084-.49224,14.82542,14.82542,0,0,1-7.01142-2.197,11.95574,11.95574,0,0,1-6.60721,1.55333A.644.644,0,0,1,9.73252,38.167a6.37169,6.37169,0,0,0,2.31584-5.12211A14.85626,14.85626,0,1,1,39.20044,22.38,11.72594,11.72594,0,0,1,40.562,36.63809a4.84444,4.84444,0,0,0,1.76272,3.85679.6436.6436,0,0,1,.152.70221ZM36.2646,29.09859A1.28859,1.28859,0,1,1,34.976,30.38718h0A1.28875,1.28875,0,0,1,36.2646,29.09859Zm-11.11427,0a1.28859,1.28859,0,1,1-1.28865,1.28858,1.2886,1.2886,0,0,1,1.28865-1.28858Zm6.84726,1.28858a1.28862,1.28862,0,1,1-1.28865-1.28858h0A1.28924,1.28924,0,0,1,31.99759,30.38717Z"/><path class="cls-4" d="M40.4405,40.29123a6.01117,6.01117,0,0,1-1.13363-3.79294.67414.67414,0,0,1,.10637-.3653,10.441,10.441,0,1,0-3.027,3.02815.643.643,0,0,1,.65041-.03285A8.542,8.542,0,0,0,40.4405,40.29123Z"/><path class="cls-3" d="M36.08662,29.27657A1.28859,1.28859,0,1,1,34.798,30.56515h0A1.28872,1.28872,0,0,1,36.08662,29.27657Z"/><path class="cls-3" d="M24.97235,29.27657a1.28859,1.28859,0,1,1-1.28865,1.28858A1.28858,1.28858,0,0,1,24.97235,29.27657Z"/><path class="cls-3" d="M31.81962,30.56515A1.28862,1.28862,0,1,1,30.531,29.27657h0A1.28923,1.28923,0,0,1,31.81962,30.56515Z"/></svg>