<svg id="Layer_1" data-name="Layer 1" xmlns="http://www.w3.org/2000/svg" viewBox="0 0 140 140"><defs><style>.cls-1{fill:#3880ff;stroke:#3880ff;stroke-miterlimit:10;}</style></defs><title>message</title><path class="cls-1" d="M41.90569,71.03854a2.82575,2.82575,0,0,0-1.34643.99046c-2.93808,2.88227-5.8818,5.75913-8.79071,8.6707-2.42415,2.42636-5.24349,3.1829-8.425,1.87715-3.194-1.31088-4.62043-3.92621-4.71522-7.28264-.07021-2.48586-.04438-4.9757-.00343-7.46281.01593-.96754-.29123-1.33288-1.31367-1.376A15.822,15.822,0,0,1,2.01182,50.56q-.03248-16.69089.001-33.38187A15.80735,15.80735,0,0,1,16.73738,1.42344c1.26081-.093,2.52747-.14913,3.79147-.15q22.93308-.015,45.86617-.00213A17.94819,17.94819,0,0,1,75.071,3.0481c5.59676,2.98947,8.61831,7.67947,8.74484,13.98232.16158,8.04824.04141,16.10212.04511,24.15357.00084,1.81041.00547,1.81719,1.78357,1.81756q17.098.00355,34.19607.00651a18.39832,18.39832,0,0,1,18.1539,14.45154,16.05071,16.05071,0,0,1,.43567,3.626c-.00895,13.4794.02426,26.95888-.015,40.43818A18.373,18.373,0,0,1,120.46338,119.66c-1.9014.03258-1.86872.03334-1.91293,1.98254-.082,3.61374.29606,7.24311-.20488,10.83938a7.76026,7.76026,0,0,1-5.37363,6.57924,7.586,7.586,0,0,1-8.22686-1.54023c-4.74287-4.52757-9.55087-9.016-13.93925-13.87533a11.29808,11.29808,0,0,0-9.873-4.077c-6.7661.35636-13.56471.1079-20.34956.093a18.357,18.357,0,0,1-18.6744-18.64452q-.01965-14.18049-.00313-28.361C41.90569,72.16377,41.90569,71.67152,41.90569,71.03854ZM90.19885,49.89412c-9.77038,0-19.54362.144-29.31017-.04978A11.86024,11.86024,0,0,0,48.722,61.92588c.18718,12.934.05119,25.87265.05886,38.80936a13.299,13.299,0,0,0,.23074,3.103,11.30642,11.30642,0,0,0,11.03667,8.91683q13.09445.08681,26.1896-.008a6.90912,6.90912,0,0,1,5.40907,2.20017c5.57937,5.67722,11.277,11.23833,16.93562,16.83749.56986.56387,1.10751,1.27611,2.08478.86943.98787-.41109,1.01026-1.276,1.00888-2.16421q-.01-6.44571-.002-12.89148c.00119-3.70411,1.12795-4.79636,4.88694-4.82553a29.24039,29.24039,0,0,0,5.8194-.19025,11.20872,11.20872,0,0,0,9.14865-11.10563c.06041-13.43394.02169-26.86833.01245-40.30254a10.07313,10.07313,0,0,0-.239-2.42233,11.38613,11.38613,0,0,0-11.11415-8.84488C110.192,49.87345,100.1954,49.89762,90.19885,49.89412ZM42.93759,8.12337c-8.32,0-16.64017-.03-24.96.01132A8.81469,8.81469,0,0,0,8.93085,16.594Q8.79218,33.88815,8.92809,51.1841a8.64208,8.64208,0,0,0,8.33237,8.40165c1.39926.0644,2.80551-.01126,4.20343.06783,2.89457.16377,4.02764,1.39311,4.03372,4.29766.00767,3.6626-.001,7.32523.00884,10.98782.00129.48049-.11617,1.06121.47981,1.29484.52414.20546.83214-.23662,1.14374-.54454q7.04342-6.9598,14.07987-13.92668a2.30512,2.30512,0,0,0,.72647-1.53439A18.43312,18.43312,0,0,1,60.7989,43.00384c4.83827-.00549,9.67709-.0415,14.51445.02492,1.32294.01817,1.69389-.43051,1.686-1.715-.04812-7.82232-.16552-15.6485.02322-23.46656a9.41188,9.41188,0,0,0-9.80369-9.75891C59.12688,8.21334,51.03151,8.12037,42.93759,8.12337Z"/><path class="cls-1" d="M110.30341,86.29735a4.82839,4.82839,0,0,1-4.88666-4.90212,4.96624,4.96624,0,0,1,4.87845-4.97984,5.10353,5.10353,0,0,1,5.01342,5.03811A4.95532,4.95532,0,0,1,110.30341,86.29735Z"/><path class="cls-1" d="M74.91729,81.38128a4.82963,4.82963,0,0,1-4.87173,4.91615,4.954,4.954,0,0,1-5.01849-4.82785,5.119,5.119,0,0,1,4.99958-5.05392A4.96534,4.96534,0,0,1,74.91729,81.38128Z"/><path class="cls-1" d="M90.20022,86.298a4.91037,4.91037,0,0,1-4.99345-4.97326,4.96087,4.96087,0,0,1,9.92144.06746A4.91768,4.91768,0,0,1,90.20022,86.298Z"/></svg>