<svg id="Layer_1" data-name="Layer 1" xmlns="http://www.w3.org/2000/svg" viewBox="0 0 1901.5705 65.73913"><defs><style>.cls-1{fill:#ace7ff;}.cls-2,.cls-4{fill:#54c8ec;}.cls-2,.cls-3{opacity:0.8;}</style></defs><title>mi-exclusive-bg</title><rect class="cls-1" width="1901.5705" height="65.73913"/><path class="cls-2" d="M1852.407,57.61726a.58821.58821,0,0,1-.27018-.4111q-.70352-2.55981-1.41171-5.11834c-.06265-.22711-.06176-.22857-.27422-.13748a1.6818,1.6818,0,0,1-1.17256.07845.3831.3831,0,0,1-.277-.52216.369.369,0,0,1,.44815-.22038,1.11017,1.11017,0,0,0,1.096-.32393,2.95508,2.95508,0,0,0,.93993-2.21133.94853.94853,0,0,0-1.6245-.65427,6.43338,6.43338,0,0,0-.58245.81192c-.2349.33806-.4275.365-.74793.10575a7.72072,7.72072,0,0,1-1.79716-1.91269,14.72287,14.72287,0,0,1-.71589-1.53012,5.31407,5.31407,0,0,0-3.09069-2.81317c-.18209-.06743-.25744-.01287-.33668.14037a5.73068,5.73068,0,0,0-.662,2.63638,4.6492,4.6492,0,0,1-.92121,2.8571,3.28219,3.28219,0,0,1-.5184.55943c-.12739.10516-.09.148.03426.20662.27409.12942.54251.27079.81527.40311a.8319.8319,0,0,1,.52353.86654,3.98521,3.98521,0,0,1-.18746,1.28746c-.01711.04378-.039.107-.02065.14.15157.27256.12445.61814.35269.85807a.47308.47308,0,0,1,.11145.33591,3.38376,3.38376,0,0,0,.03619.7788,1.05291,1.05291,0,0,0,1.01112.79381,8.14756,8.14756,0,0,0,4.22824-1.15252,1.1012,1.1012,0,0,1,.24331-.11978.37537.37537,0,0,1,.384.60733.80471.80471,0,0,1-.21745.16264,8.462,8.462,0,0,1-1.27206.62469c-.13535.05085-.14174.10737-.085.22745.31575.669.62464,1.34117.93482,2.01275a.42641.42641,0,0,1-.14244.6327h-.32759a.91668.91668,0,0,1-.22772-.3014c-.31708-.6945-.64145-1.3857-.95524-2.08168a.19886.19886,0,0,0-.28064-.13034,8.65987,8.65987,0,0,1-2.22695.29528,1.83367,1.83367,0,0,1-1.85708-1.66777,2.02653,2.02653,0,0,0-.04881-.59192c-.11581-.25344-.20135-.51555-.30743-.77065a1.21312,1.21312,0,0,1-.05787-.90228,2.84208,2.84208,0,0,0,.13056-1.00207.25142.25142,0,0,0-.15568-.25714c-.30018-.14478-.59507-.30058-.896-.44378a.88279.88279,0,0,1-.46974-.48159v-.4004a.95058.95058,0,0,1,.289-.38978,3.58854,3.58854,0,0,0,1.29938-2.85046,6.47383,6.47383,0,0,1,2.06136-4.79032,6.71432,6.71432,0,0,1,4.1-1.84738,7.51734,7.51734,0,0,1,4.64322,1.0197.16989.16989,0,0,0,.23865-.02777l.00663-.009a3.47879,3.47879,0,0,1,4.30328-.51212,3.367,3.367,0,0,1,1.69145,3.33328,3.40878,3.40878,0,0,1-2.16865,2.95183c-.255.11368-.24882.10632-.23141.39144.0532.87176-1.59986,4.5952-1.83147,5.43884a.39448.39448,0,0,1-.47763.33584.39034.39034,0,0,1-.26249-.53244c.223-.80456,1.86138-4.48971,1.78885-5.315a7.02528,7.02528,0,0,0-5.90582-6.26493,6.20144,6.20144,0,0,0-5.75895,2.00011l-.02414.02722c-.16035.18708-.15852.18262.0714.27631a6.022,6.022,0,0,1,3.49011,3.52833,5.80185,5.80185,0,0,0,1.76836,2.469c.11752.09572.18047.09928.2654-.0357a2.102,2.102,0,0,1,.78126-.8189,1.6697,1.6697,0,0,1,1.80905.08882,1.71924,1.71924,0,0,1,.74938,1.672,3.771,3.771,0,0,1-.86476,2.15909.24433.24433,0,0,0-.0543.2363c.10093.362.20444.72326.2994,1.08678.03966.15185.10934.10264.19422.04826a7.074,7.074,0,0,0,1.36428-1.14067c.02893-.03106.05651-.06345.08644-.09353a.379.379,0,0,1,.5507-.054.384.384,0,0,1,.03954.54168l-.02466.026a7.67336,7.67336,0,0,1-.6834.6797,6.73257,6.73257,0,0,1-1.08814.78932.24628.24628,0,0,0-.137.32022l.0077.01725q.48068,1.70637.94664,3.41687a.4211.4211,0,0,1-.193.56343Zm2.2738-17.89466a2.83979,2.83979,0,0,0-1.7749.64993c-.18676.15709-.18609.158.00473.31464a7.69126,7.69126,0,0,1,2.6794,4.21973c.039.16015.09374.17015.23092.10784a2.7708,2.7708,0,0,0-1.14015-5.29214Z"/><g class="cls-3"><path class="cls-4" d="M691.81231,54.89621,679.0761,42.56632q-.10143-.164-.20292-.328a4.41138,4.41138,0,0,1,.56395-5.45551q7.52016-7.7832,15.056-15.55126a4.39749,4.39749,0,0,1,6.21736-.1422q.02946.02814.05839.05683,5.87887,5.68278,11.74951,11.37407a3.91282,3.91282,0,0,1,.3898.40779,4.43343,4.43343,0,0,1-.33173,5.93406q-1.00966,1.05029-2.02618,2.094-6.44206,6.6543-12.88319,13.3095a4.48454,4.48454,0,0,1-2.778,1.40615A4.566,4.566,0,0,1,691.81231,54.89621Zm11.96593-9.5691q3.72362-3.84633,7.44619-7.6937a2.61164,2.61164,0,0,0-.05961-3.886q-1.1385-1.11159-2.28583-2.21411c-.324-.31333-.32515-.31323-.631.00245-1.4073,1.45248-2.806,2.91342-4.22352,4.35584a4.42061,4.42061,0,0,1-6.27333-6.2294q2.09085-2.17742,4.20116-4.33608c.19015-.19476.19156-.32334-.00664-.51137-.8055-.76415-1.59472-1.54542-2.39764-2.31233a2.59466,2.59466,0,0,0-3.79956.05655q-7.47666,7.70557-14.93651,15.42746a2.62281,2.62281,0,0,0-.66332,1.079,2.58784,2.58784,0,0,0,.75421,2.76422q4.80912,4.6533,9.61608,9.30882c.69806.67574,1.39281,1.355,2.09742,2.02383a2.49564,2.49564,0,0,0,1.51287.69031,2.67266,2.67266,0,0,0,2.26355-.89738Q700.08676,49.14242,703.77824,45.32711Zm-2.631-16.55185q-.972,1.004-1.94512,2.00686a3.57021,3.57021,0,0,0-.44847.55285,2.54807,2.54807,0,0,0,.41561,3.30733,2.575,2.575,0,0,0,3.68682-.1641c1.38365-1.41929,2.75587-2.84972,4.14069-4.26786.18963-.19419.19131-.3227-.00633-.51159q-1.62278-1.55094-3.22551-3.12277c-.199-.1952-.3285-.17591-.51148.01734C702.55846,27.32733,701.85047,28.049,701.14726,28.77526Z"/><path class="cls-4" d="M700.67752,31.68722c.13766-.14225.2698-.29039.4141-.42554a.90761.90761,0,0,1,1.316,1.25009c-.26971.30271-.55281.59493-.84633.87463a.90767.90767,0,0,1-1.29558-1.27143C700.39591,31.96619,700.53987,31.82946,700.67752,31.68722Z"/></g><g class="cls-3"><path class="cls-4" d="M80.07736,48.12761a1.83129,1.83129,0,0,1-.96124-.9375c-.4828-1.013-.97869-1.99619-1.40266-2.85878a49.90018,49.90018,0,0,1-2.88539-6.71462,8.40582,8.40582,0,0,1,.13256-5.99891,7.202,7.202,0,0,1,3.70886-3.79172,6.35428,6.35428,0,0,1,5.15984.01459A6.11661,6.11661,0,0,1,86.75047,30.527a8.10213,8.10213,0,0,1,.52853,1.1934,7.00834,7.00834,0,0,1,1.23542-.42106,6.01461,6.01461,0,0,1,3.95529.32446,6.38038,6.38038,0,0,1,3.51044,3.78166,7.202,7.202,0,0,1-.27065,5.29713,8.40589,8.40589,0,0,1-4.31822,4.16624,44.73211,44.73211,0,0,1-6.921,2.42092c-.92142.27352-1.9802.576-3.05207.9083A1.966,1.966,0,0,1,80.07736,48.12761ZM83.3319,28.97677a5.059,5.059,0,0,0-4.12919-.00867,5.85756,5.85756,0,0,0-3.0116,3.135,7.32584,7.32584,0,0,0-.11922,5.114,43.76667,43.76667,0,0,0,2.83966,6.53426c.424.86259.91986,1.84574,1.38957,2.88869a.68546.68546,0,0,0,.74744.32726c1.10177-.31925,2.14374-.66468,3.06516-.9382a43.76686,43.76686,0,0,0,6.72754-2.34529,7.32584,7.32584,0,0,0,3.677-3.55626,6.09091,6.09091,0,0,0,.261-4.33935,5.111,5.111,0,0,0-2.807-3.02832,4.453,4.453,0,0,0-3.10312-.23637,5.5225,5.5225,0,0,0-1.29805.48271.99944.99944,0,0,1-.85313.0362h0a.99947.99947,0,0,1-.552-.65145,4.62992,4.62992,0,0,0-.5257-1.28124A4.85531,4.85531,0,0,0,83.3319,28.97677Z"/></g><g class="cls-3"><path class="cls-4" d="M408.63559,19.82919a1.19057,1.19057,0,0,1,.39488-.32026l2.36889-1.41846a.91191.91191,0,0,1,1.05064-.00892c1.50366.8596,3.01227,1.69948,4.511,2.57882a.50608.50608,0,0,0,.56724-.00443c1.33745-.81761,2.69463-1.63026,4.04685-2.4232.29612-.1773.29612-.1773.03488-.38964-2.43474-2.16263-4.88921-4.33021-7.319-6.51256a.853.853,0,0,1,.1296-1.51911c.88834-.53192,1.7964-1.05889,2.68968-1.61054a1.04921,1.04921,0,0,1,1.17889-.01867c3.17,1.82294,6.35972,3.65083,9.52477,5.49349a1.1698,1.1698,0,0,0,1.43046-.01845,27.66781,27.66781,0,0,1,3.267-1.906,7.63115,7.63115,0,0,1,4.04528-.66228,2.20512,2.20512,0,0,1,1.7877,3.15349,8.03185,8.03185,0,0,1-3.33283,3.75562c-.913.5467-1.831,1.11312-2.7637,1.65487a.40686.40686,0,0,0-.23221.424q.19464,5.74166.34983,11.47341a1.11248,1.11248,0,0,1-.61757,1.12407c-.90311.50724-1.77172,1.04411-2.66005,1.576a.84614.84614,0,0,1-1.40031-.603c-.76173-3.14764-1.50374-6.29034-2.26547-9.438l-.02948-.1332c-.0294-.21706-.10335-.25659-.32048-.14333-.96731.596-1.9494,1.16727-2.91671,1.76324-.39482.23641-.79458.49255-1.20417.70428a.46714.46714,0,0,0-.26184.45849c.04778,1.73137.07584,3.45778.14334,5.1941a.98032.98032,0,0,1-.53852.97616l-2.29486,1.37413a1.67446,1.67446,0,0,1-.51317.20671l-.51287-.1287a1.35036,1.35036,0,0,1-.394-.686c-.6292-2.42244-1.28308-4.83011-1.91228-7.25255a.83423.83423,0,0,0-.23641-.39481c-1.83337-1.71817-3.67169-3.4166-5.50506-5.13477a1.3503,1.3503,0,0,1-.41867-.6712Zm28.26429-6.43144a.54951.54951,0,0,0-.50252-.67128,6.21114,6.21114,0,0,0-3.91725.90409c-4.84143,2.91574-9.69764,5.8068-14.51934,8.72749a1.2124,1.2124,0,0,1-1.36633.01358c-1.27685-.76075-2.57845-1.42287-3.83062-2.1984a1.247,1.247,0,0,0-1.64751.04785c-.37022.30549-.40959.21173-.04981.53267,1.57709,1.4861,3.15913,2.95248,4.74116,4.41886a1.32211,1.32211,0,0,1,.38417.64158c.27526,1.07554.57025,2.156.86523,3.23652.28022,1.05581.55548,2.13135.83569,3.18717.04913.222.14776.24676.32544.1236a4.0013,4.0013,0,0,1,.6169-.36939.53435.53435,0,0,0,.31621-.59162c-.04291-1.66724-.06608-3.32953-.13366-4.982a1.17534,1.17534,0,0,1,.62747-1.16352c4.85621-2.89106,9.69764-5.8068,14.55384-8.69787a6.5126,6.5126,0,0,0,1.76722-1.52751A6.71681,6.71681,0,0,0,436.89988,13.39775Zm-6.58667,7.44718a.44293.44293,0,0,0-.21218.09353l-2.98579,1.78785a.37481.37481,0,0,0-.22733.48812l1.04674,4.35144c.35874,1.49488.72243,2.97,1.06145,4.46.07372.29108.07372.29108.34516.12855.37014-.22163.72055-.44822,1.08574-.65013a.40741.40741,0,0,0,.23716-.44371c-.07673-2.45155-.15346-4.90309-.22524-7.37436-.03375-.86816-.04778-1.73136-.08153-2.59952C430.35746,21.00282,430.40194,20.90914,430.31321,20.84493ZM417.81907,9.8046a.23849.23849,0,0,0-.24173.04418c-.39481.23641-.7699.47777-1.17949.6895-.21714.11326-.21721.19711-.04471.34524,2.26224,2.0145,4.54421,4.03395,6.78177,6.06322a.35174.35174,0,0,0,.48827.05963c.992-.61075,1.99875-1.19682,2.98578-1.78785.27144-.16253.27639-.18225.0003-.33541-2.63755-1.52158-5.26033-3.01848-7.89788-4.54006A9.31575,9.31575,0,0,0,417.81907,9.8046Z"/></g><g class="cls-3"><path class="cls-4" d="M1303.6431,35.12128a3.19714,3.19714,0,0,1-.22067,1.854,2.62245,2.62245,0,0,1-.83984,1.05943.37548.37548,0,0,0-.16847.48191,5.97679,5.97679,0,0,1,.24715,1.72711,5.42681,5.42681,0,0,1-.90485,3.06086,9.38,9.38,0,0,1-3.14366,2.83629,23.13173,23.13173,0,0,1-3.98537,1.885,16.08429,16.08429,0,0,1-4.46166,1.0777,6.29629,6.29629,0,0,1-4.18463-1.00961,5.9158,5.9158,0,0,1-1.76623-1.96457c-.20146-.35406-.19624-.357-.58806-.30819a2.9094,2.9094,0,0,1-3.10374-2.38261,2.83082,2.83082,0,0,1,1.07837-2.78617.2764.2764,0,0,0,.104-.3768l-.0037-.00632a9.97912,9.97912,0,0,1,1.01954-9.66352,9.93138,9.93138,0,0,1,13.42928-2.67487,9.715,9.715,0,0,1,3.32609,3.45751,10.15472,10.15472,0,0,1,.64717,1.33739c.04419.11369.09549.19348.24134.17556a2.899,2.899,0,0,1,2.8796,1.29637.36747.36747,0,0,0,.03265.03511Zm-15.85935-7.09456a5.10322,5.10322,0,0,1,2.68336,1.22112,3.302,3.302,0,0,1,1.22651,2.9552,2.94422,2.94422,0,0,1-3.22879,2.602,2.533,2.533,0,0,1-2.10257-1.921,2.15165,2.15165,0,0,1,1.16313-2.38418.55763.55763,0,0,1,.79153.18456.54539.54539,0,0,1-.27376.74372,1.135,1.135,0,0,0-.23092,1.91979,1.58583,1.58583,0,0,0,2.33947-.2232,2.06054,2.06054,0,0,0-.16246-2.84881,4.0366,4.0366,0,0,0-4.005-1.06243,1.927,1.927,0,0,0-.88132.35355,8.75061,8.75061,0,0,0-2.7287,4.13046,8.43854,8.43854,0,0,0,.12277,5.63055c.71255,1.87807,1.51007,3.72421,2.28676,5.57746a5.73885,5.73885,0,0,0,1.1527,1.75689,4.68606,4.68606,0,0,0,3.53931,1.39252,13.44019,13.44019,0,0,0,4.75677-1.03063,24.34732,24.34732,0,0,0,2.98257-1.32146,11.68425,11.68425,0,0,0,2.88846-2.041,4.67051,4.67051,0,0,0,1.37149-4.51971,13.96515,13.96515,0,0,0-.87181-2.4121c-.625-1.4822-1.16787-2.99962-1.87514-4.44635a8.31912,8.31912,0,0,0-3.0045-3.35768,8.79264,8.79264,0,0,0-6.30828-1.35113A7.408,7.408,0,0,0,1287.78375,28.02672Zm-4.901,15.12073c-.1949-.4735-.39522-.94485-.582-1.42154-.07254-.1852-.14544-.178-.26105-.04319a1.84,1.84,0,0,0,1.26043,3.0811c.17565.01562.2369-.03831.15987-.21884C1283.26222,44.08141,1283.07432,43.61364,1282.8827,43.14745Zm18.40214-7.60384c.1949.4735.39363.94546.58269,1.42127.07014.17654.149.18729.26683.048a1.84044,1.84044,0,0,0-1.26872-3.07817c-.21063-.01774-.22531.06011-.15014.234C1300.91228,34.624,1301.0958,35.085,1301.28484,35.54361Z"/><path class="cls-4" d="M1293.37947,42.78861a3.74489,3.74489,0,0,1-2.75368-.02945.54053.54053,0,0,1-.38524-.47377.50943.50943,0,0,1,.27091-.49875.63564.63564,0,0,1,.57715.006,2.76007,2.76007,0,0,0,3.40734-1.37518c.09182-.18927.186-.38023.40888-.44161a.50952.50952,0,0,1,.54806.14932.52126.52126,0,0,1,.08351.58293,3.698,3.698,0,0,1-1.1505,1.50836A4.0391,4.0391,0,0,1,1293.37947,42.78861Z"/><path class="cls-4" d="M1286.585,42.06011a.977.977,0,0,1,.50875-1.28458l.019-.008a.9981.9981,0,0,1,.79046,1.833l-.0351.01435a.981.981,0,0,1-1.27762-.54092Z"/><path class="cls-4" d="M1297.89981,37.40224a.98141.98141,0,0,1-.50682,1.29209l-.03542.01465a1.02246,1.02246,0,0,1-1.30051-.5429,1.01209,1.01209,0,0,1,.55775-1.30974.97692.97692,0,0,1,1.27725.5267Z"/></g><g class="cls-3"><path class="cls-4" d="M1585.29114,33.25878a1.55452,1.55452,0,0,1-.23115-1.89412c2.22345-4.7485,5.52172-11.815,7.74271-16.56465a2.18124,2.18124,0,0,1,.223-.38014.4555.4555,0,0,1,.6177-.14333.47064.47064,0,0,1,.24172.61519,3.28429,3.28429,0,0,1-.15326.34631c-2.21,4.73154-5.50178,11.77783-7.71187,16.50933-.25727.55076-.20822.68346.35278.94556q7.65495,3.57656,15.31047,7.1519a2.70154,2.70154,0,0,0,.31969.13485,1.26194,1.26194,0,0,0,1.6506-.6786l.01764-.04463c.37972-.79872,1.83162-3.91675,2.2071-4.71749a.50125.50125,0,0,1,.52236-.32861.47208.47208,0,0,1,.43278.35766.46679.46679,0,0,1-.02183.34c-.43458,1.00414-1.9099,4.3485-2.51324,5.26408a2.12379,2.12379,0,0,1-1.94113.9178c-.11532-.0027-.23045-.01331-.34568-.02027Z"/><path class="cls-4" d="M1601.91685,9.196c2.10992.98564,6.448,3.01191,8.47069,3.95772a1.57007,1.57007,0,0,1,.30613.16195.5003.5003,0,0,1-.36328.89778,1.605,1.605,0,0,1-.50252-.18216c-3.27326-1.52887-8.86127-4.13948-12.13456-5.66829-.56821-.26538-.63752-.23934-.907.33746q-1.53155,3.27781-3.06284,6.55576a2.88867,2.88867,0,0,1-.15335.31161.47677.47677,0,0,1-.60154.21515.46319.46319,0,0,1-.31447-.55279,1.56831,1.56831,0,0,1,.14232-.41625q1.541-3.30827,3.08864-6.61346a1.483,1.483,0,0,1,1.94171-.94442q7.51608,1.61264,15.0321,3.22565a1.79816,1.79816,0,0,1,1.34527,2.72843c-.1821.39156-.36341.78351-.54836,1.17373-.06646.14021-.07632.23972.08544.339a2.29417,2.29417,0,0,1,.99554,3.2794c-.52144,1.12817-1.05105,2.25256-1.57707,3.37861q-3.20967,6.8708-6.41938,13.74158a1.91383,1.91383,0,0,1-.27871.49336.48.48,0,0,1-.62748.12363.473.473,0,0,1-.22824-.59638,2.93023,2.93023,0,0,1,.1646-.37579q4.025-8.61734,8.05217-17.23363a1.62187,1.62187,0,0,0,.20218-.91092,1.17983,1.17983,0,0,0-.71893-.96658q-1.70568-.79075-3.40649-1.592a2.30177,2.30177,0,0,1-.3346-.17651.50562.50562,0,0,1,.48869-.88531c.59578.2672,1.18514.54871,1.7769.82487.77288.3607.77284.361,1.12766-.39883.12478-.26722.25317-.53284.37294-.80229a.72837.72837,0,0,0-.53918-1.10489c-1.7469-.38463-3.4971-.75421-5.24587-1.1304q-2.68481-.57756-5.36942-1.156C1602.11652,9.2218,1602.05494,9.21632,1601.91685,9.196Z"/><path class="cls-4" d="M1599.07477,26.41248q-1.46015-.68211-2.91988-1.36512a1.5178,1.5178,0,0,1-.30218-.16858.4998.4998,0,0,1,.336-.89173,1.041,1.041,0,0,1,.44776.14208q2.8917,1.35078,5.78326,2.70183a1.09765,1.09765,0,0,1,.37469.22919.50114.50114,0,0,1-.47787.84618,1.8704,1.8704,0,0,1-.32116-.13026Q1600.53448,27.09555,1599.07477,26.41248Z"/><path class="cls-4" d="M1600.79508,22.75326c-.97343-.45473-4.72505-2.20655-5.69778-2.66281a1.5178,1.5178,0,0,1-.30218-.16858.49979.49979,0,0,1,.336-.89173,1.04089,1.04089,0,0,1,.44776.14208c1.9278.90052,8.94842,4.18009,10.87608,5.08092a1.09762,1.09762,0,0,1,.37469.22918.50114.50114,0,0,1-.47789.8462,1.8704,1.8704,0,0,1-.32116-.13026C1605.05665,24.74458,1601.76851,23.208,1600.79508,22.75326Z"/></g></svg>