<svg id="Layer_1" data-name="Layer 1" xmlns="http://www.w3.org/2000/svg" viewBox="0 0 52 52"><defs><style>.cls-1{fill:none;stroke:#ddd;stroke-miterlimit:10;}.cls-2{fill:#ffb125;}.cls-3{fill:#b6fa4c;}.cls-4{fill:#a8e83a;}.cls-5{fill:#7d0;}.cls-6{fill:#73cc00;}.cls-7{fill:#ffdf00;}.cls-8{fill:#f4d100;}.cls-9{fill:#ff6d3a;}.cls-10{fill:#ed5729;}.cls-11{fill:#f2f2f2;}</style></defs><title>promotions</title><path class="cls-1" d="M26.13035,1.35739h0a25.00912,25.00912,0,0,1,25,25h0a25.00912,25.00912,0,0,1-25,25h0a25.00912,25.00912,0,0,1-25-25h0a25.00912,25.00912,0,0,1,25-25Z"/><path class="cls-2" d="M37.96368,21.22406h-25.2a1.124,1.124,0,0,0-1.13333,1.13333h0v3.03333H39.097V22.35739a1.14531,1.14531,0,0,0-1.13334-1.13333Z"/><path class="cls-3" d="M28.797,14.99072l-2.3,23.13334a1.05408,1.05408,0,0,1-1.16667.93333L13.797,37.89072a1.05407,1.05407,0,0,1-.93334-1.16666l2.26667-23.1a1.05408,1.05408,0,0,1,1.16667-.93334l11.56666,1.13334A1.05407,1.05407,0,0,1,28.797,14.99072Z"/><path class="cls-4" d="M27.86368,13.82406,16.297,12.69072a1.07344,1.07344,0,0,0-1.16667.93334h0l-.2,2.06666a.83067.83067,0,0,1,.56667-.1l11.56666,1.13334a1.05408,1.05408,0,0,1,.93334,1.16666L25.93035,38.92406a1.00653,1.00653,0,0,0,.56667-.83334l2.3-23.1A1.05407,1.05407,0,0,0,27.86368,13.82406Z"/><path class="cls-5" d="M16.36368,16.92406,14.697,33.79073a.63927.63927,0,0,0,.3.6,3.025,3.025,0,0,1,1.23333,1.5.66218.66218,0,0,0,.53333.4l6,.6a.63927.63927,0,0,0,.6-.3A3.10378,3.10378,0,0,1,24.897,35.35739a.60491.60491,0,0,0,.4-.53333l1.66666-16.86667a.63927.63927,0,0,0-.3-.6,3.025,3.025,0,0,1-1.23333-1.5.66218.66218,0,0,0-.53333-.4l-6-.6a.63926.63926,0,0,0-.6.3,3.10376,3.10376,0,0,1-1.53334,1.23333A.58072.58072,0,0,0,16.36368,16.92406Z"/><path class="cls-6" d="M26.66368,17.35739a3.02507,3.02507,0,0,1-1.23333-1.5.66216.66216,0,0,0-.53333-.4l-6-.6a.63927.63927,0,0,0-.6.3,3.10371,3.10371,0,0,1-1.53334,1.23333.60492.60492,0,0,0-.4.53334l-.06666.63333,7.76666.73334a.66215.66215,0,0,1,.53334.4,2.88969,2.88969,0,0,0,1.23333,1.5.63927.63927,0,0,1,.3.6L24.697,35.42406a.47387.47387,0,0,1,.2-.06667.60489.60489,0,0,0,.4-.53333l1.66667-16.86667A.63926.63926,0,0,0,26.66368,17.35739Z"/><path class="cls-3" d="M38.63035,18.42406l-13.1,19.2a1.06546,1.06546,0,0,1-1.46667.26667h0l-9.6-6.53334a1.06546,1.06546,0,0,1-.26666-1.46667h0l13.06666-19.2a1.06546,1.06546,0,0,1,1.46667-.26666h0l9.6,6.53333A1.0439,1.0439,0,0,1,38.63035,18.42406Z"/><path class="cls-4" d="M38.36368,16.95739l-9.63333-6.53333a1.06546,1.06546,0,0,0-1.46667.26666l-1.13333,1.63334a.67.67,0,0,1,.26667.13333l9.63333,6.56667a1.06545,1.06545,0,0,1,.26667,1.46666h0L24.36368,38.02406a1.11076,1.11076,0,0,0,1.2-.4l13.1-19.2A1.10616,1.10616,0,0,0,38.36368,16.95739Z"/><path class="cls-5" d="M26.76368,14.15739l-9.53333,14a.68092.68092,0,0,0-.03333.66667,2.98781,2.98781,0,0,1,.36666,1.93333.61372.61372,0,0,0,.26667.6l4.96667,3.4a.68087.68087,0,0,0,.66666.03334,3.25966,3.25966,0,0,1,1.93334-.36667.61373.61373,0,0,0,.6-.26667l9.53333-14a.68092.68092,0,0,0,.03333-.66667,2.9878,2.9878,0,0,1-.36666-1.93333.61372.61372,0,0,0-.26667-.6l-4.93333-3.4a.68092.68092,0,0,0-.66667-.03333,3.25973,3.25973,0,0,1-1.93334.36666A.66768.66768,0,0,0,26.76368,14.15739Z"/><path class="cls-6" d="M35.597,19.49072a2.98774,2.98774,0,0,1-.36667-1.93333.61372.61372,0,0,0-.26667-.6l-4.96666-3.4a.68092.68092,0,0,0-.66667-.03333,3.25973,3.25973,0,0,1-1.93334.36666.61373.61373,0,0,0-.6.26667l-.4.6,6.23334,4.2a.61372.61372,0,0,1,.26667.6,3.02784,3.02784,0,0,0,.36666,1.93333.60747.60747,0,0,1-.03333.66667L24.86368,34.39072a3.23341,3.23341,0,0,1,.56667.03334.61373.61373,0,0,0,.6-.26667l9.53333-14A.55175.55175,0,0,0,35.597,19.49072Z"/><circle class="cls-3" cx="27.86368" cy="22.85739" r="3.43333"/><path class="cls-7" d="M38.36368,42.39072H12.03035A1.636,1.636,0,0,1,10.397,40.75739h0V24.69072a1.636,1.636,0,0,1,1.63334-1.63333H38.36368A1.636,1.636,0,0,1,39.997,24.69072h0v16.1a1.6078,1.6078,0,0,1-1.63334,1.6Z"/><path class="cls-8" d="M38.36368,23.05739H35.397a1.636,1.636,0,0,1,1.63334,1.63333h0v16.1A1.636,1.636,0,0,1,35.397,42.42406h2.96667A1.636,1.636,0,0,0,39.997,40.79073h0v-16.1a1.636,1.636,0,0,0-1.63334-1.63333Z"/><path class="cls-9" d="M40.96368,29.62406H35.03035a3.1156,3.1156,0,0,0-3.1,3.1h0a3.1156,3.1156,0,0,0,3.1,3.1h5.93333a.5975.5975,0,0,0,.6-.6v-5A.64449.64449,0,0,0,40.96368,29.62406Z"/><path class="cls-10" d="M40.96368,29.62406H37.997a.59751.59751,0,0,1,.6.6v4.23333a.63291.63291,0,0,1-.63334.63334H35.03035a3.12852,3.12852,0,0,1-3.1-2.73334,3.11258,3.11258,0,0,0,2.7,3.46667c.13333,0,.26666.03333.4.03333h5.93333a.5975.5975,0,0,0,.6-.6h0V30.22406A.64449.64449,0,0,0,40.96368,29.62406Z"/><path class="cls-9" d="M38.36368,23.05739H12.03035A1.636,1.636,0,0,0,10.397,24.69072h0v1.76667h29.6V24.69072A1.636,1.636,0,0,0,38.36368,23.05739Z"/><path class="cls-10" d="M39.697,23.79073a1.44955,1.44955,0,0,0-.2-.23334h0c-.06667-.06666-.16667-.13333-.23334-.2-.03333,0-.03333-.03333-.06666-.03333-.03334-.03333-.06667-.03333-.1-.06667-.03334,0-.03334-.03333-.06667-.03333a1.49236,1.49236,0,0,0-.66667-.13333H35.397a1.636,1.636,0,0,1,1.63333,1.63333v1.76667H39.997v-1.8a1.54845,1.54845,0,0,0-.2-.76666A.46.46,0,0,0,39.697,23.79073Z"/><path class="cls-9" d="M12.03035,42.39072H38.36368A1.636,1.636,0,0,0,39.997,40.75739h0V38.99072h-29.6v1.76667A1.61494,1.61494,0,0,0,12.03035,42.39072Z"/><path class="cls-10" d="M37.03035,38.99072v1.8a.26292.26292,0,0,1-.26667.26666H12.03035A1.636,1.636,0,0,1,10.397,39.42406h0v1.36667a1.636,1.636,0,0,0,1.63333,1.63333H38.697a.12246.12246,0,0,0,.1-.03333h.03334c.06666-.03334.13333-.03334.2-.06667.03333,0,.03333-.03333.06666-.03333s.03333-.03334.06667-.03334h0a.25271.25271,0,0,1,.13333-.06666h0c.03333-.03333.06667-.06667.1-.06667h0l.1-.1h0l.1-.1h0a.69729.69729,0,0,0,.13334-.2h0a.11637.11637,0,0,1,.03333-.06666h0a1.62536,1.62536,0,0,0,.1-.23334v-.03333c0-.03333,0-.03333.03333-.06666v-.13334a.12245.12245,0,0,1,.03334-.1h0V40.8574h0V39.09073l-2.9-.1Z"/><circle class="cls-11" cx="35.13035" cy="32.72406" r="1.43333"/><path d="M40.96368,29.15739h-.5V24.69072a2.04376,2.04376,0,0,0-.9-1.7h0v-.63333a1.60035,1.60035,0,0,0-1.6-1.6H37.597l1.4-2.06667a1.54872,1.54872,0,0,0-.4-2.13333l-9.6-6.53333a1.54872,1.54872,0,0,0-2.13334.4h0L18.597,22.59072h-2.3l.56666-5.63333c0-.06667.03334-.13333.1-.13333a3.54641,3.54641,0,0,0,1.76667-1.43334c.03333-.06666.1-.06666.16667-.06666l3.56666.36666a.46785.46785,0,1,0,.06667-.93333L18.897,14.39072a1.131,1.131,0,0,0-1.03333.5,2.66343,2.66343,0,0,1-1.3,1.03334,1.04714,1.04714,0,0,0-.7.93333L15.297,22.59072h-.6l.9-8.9a.58979.58979,0,0,1,.63333-.53333l7.3.73333a.46785.46785,0,1,0,.06667-.93333l-7.3-.73333a1.53159,1.53159,0,0,0-1.66667,1.36666l-.7,7.2h-1.2a1.60034,1.60034,0,0,0-1.6,1.6v.4a2.13073,2.13073,0,0,0-1.23333,1.9v16.1a2.09127,2.09127,0,0,0,2.1,2.1H38.33035a2.09127,2.09127,0,0,0,2.1-2.1V36.32406h.5A1.053,1.053,0,0,0,41.997,35.25739V30.22406A1.02559,1.02559,0,0,0,40.96368,29.15739Zm-3-7.43333a.66863.66863,0,0,1,.66667.66666v.23334c-.1,0-.16667-.03334-.26667-.03334h-2l.6-.86666Zm-10.3-10.76667a.5049.5049,0,0,1,.36667-.23333h.1a.5631.5631,0,0,1,.33333.1L38.097,17.35739a.584.584,0,0,1,.16666.8l-3.03333,4.43333H34.497l1.46666-2.16666a1.129,1.129,0,0,0,.06667-1.16667,2.53649,2.53649,0,0,1-.3-1.63333,1.1241,1.1241,0,0,0-.46667-1.06667l-5-3.4a1.129,1.129,0,0,0-1.16666-.06667,2.76824,2.76824,0,0,1-1.63334.3,1.09527,1.09527,0,0,0-1.06666.46667l-5.93334,8.73333h-.73333Zm.2,8A3.89386,3.89386,0,0,0,23.997,22.59072h-2.4l5.56667-8.16666h0a.17316.17316,0,0,1,.13334-.06667h.03333a3.73049,3.73049,0,0,0,2.23333-.4.14881.14881,0,0,1,.16667,0l4.96666,3.4c.06667.03333.06667.1.06667.16667a3.60155,3.60155,0,0,0,.43333,2.2.14875.14875,0,0,1,0,.16666l-1.83333,2.7h-1.6A3.94859,3.94859,0,0,0,27.86368,18.95739ZM30.797,22.59072H24.93035a2.94543,2.94543,0,0,1,5.86667,0Zm-18.7-.23333a.66863.66863,0,0,1,.66666-.66667h1.1l-.1.86667h-1.7v-.2Zm-1.23334,2.33333a1.181,1.181,0,0,1,1.16667-1.16666H38.36368a1.181,1.181,0,0,1,1.16667,1.16666v1.3H10.86368ZM39.53035,38.52406h-23.1a.46667.46667,0,1,0,0,.93333H39.497v1.3a1.181,1.181,0,0,1-1.16667,1.16667H11.997a1.181,1.181,0,0,1-1.16667-1.16667v-1.3h2.53333a.46667.46667,0,1,0,0-.93333H10.83035V26.95739H39.46368v2.2h-4.5a3.621,3.621,0,0,0-3.23333,2.03333h0v.03334a1.92764,1.92764,0,0,0-.16667.46666h0a3.75664,3.75664,0,0,0-.16666,1.06667h0a3.57071,3.57071,0,0,0,3.56666,3.56667h4.5l.06667,2.2Zm1.53333-3.26667a.14337.14337,0,0,1-.13333.13333H34.997a2.69041,2.69041,0,0,1-2.33334-1.36666c-.03333-.03334-.03333-.06667-.06666-.1-.03333-.06667-.06667-.16667-.1-.23334a2.77451,2.77451,0,0,1,0-1.8c.03333-.06666.06666-.16666.1-.23333.03333-.03333.03333-.06666.06666-.1A2.62371,2.62371,0,0,1,34.997,30.19072h5.93333a.14339.14339,0,0,1,.13334.13334Z"/><path d="M35.13035,30.82406a1.8991,1.8991,0,0,0-1.9,1.9,1.92088,1.92088,0,0,0,1.9,1.9,1.89911,1.89911,0,0,0,1.9-1.9A1.87806,1.87806,0,0,0,35.13035,30.82406Zm0,2.86666a.96667.96667,0,1,1,.96667-.96666A.96736.96736,0,0,1,35.13035,33.69072Z"/></svg>