<svg id="Layer_1" data-name="Layer 1" xmlns="http://www.w3.org/2000/svg" viewBox="0 0 150 150"><defs><style>.cls-1{fill:#fb3247;}.cls-2{fill:#00ee6d;}.cls-3{fill:#fec100;}.cls-4{fill:#00d8fe;}</style></defs><title>playstore</title><path class="cls-1" d="M110.44451,100.71808a13.61075,13.61075,0,0,1-3.31854,2.10051q-37.78119,21.95748-75.57991,43.88479c-5.99122,3.47757-11.28793,3.22906-16.0729-.7607a6.09211,6.09211,0,0,1-.59476-.659c.27183-1.06469,1.207-1.59928,1.89254-2.32206a65.027,65.027,0,0,0,5.49732-5.88468q4.01031-3.96554,7.97308-7.97946c2.4411-2.39593,4.84813-4.826,7.25458-7.25683,2.63625-2.71991,5.5142-5.206,7.87534-8.19227A6.54011,6.54011,0,0,1,46.847,112.3275c2.6096-2.19932,4.859-4.767,7.30051-7.13811,2.71384-2.811,5.69317-5.36511,8.13231-8.44169A5.452,5.452,0,0,1,63.496,95.6776c2.72467-2.31463,5.08908-4.99756,7.64795-7.4813,2.43457-2.38813,4.83119-4.81421,7.23479-7.23344,2.15389-1.97542,4.00451-4.26707,6.3222-6.07368a1.02349,1.02349,0,0,1,.50944.01357,4.03518,4.03518,0,0,1,1.11567.90594q11.5738,11.56305,23.12945,23.14423C109.93193,99.431,110.66356,99.82522,110.44451,100.71808Z"/><path class="cls-2" d="M84.99681,75.07486l-.13.00253-.12617-.03144c-.88133.1524-1.29592-.54715-1.77248-1.04046C64.6327,55.02544,45.72388,36.615,27.19927,17.8237c-3.75712-3.81121-7.45311-7.6886-11.20764-11.50614-.45854-.46624-1.01834-.87067-1.1333-1.58677C18.963.44328,25.12643-.38735,30.56683,2.78463c12.42187,7.24244,24.77887,14.5962,37.20463,21.8319,13.6213,7.93189,27.29123,15.78027,40.93534,23.673.61987.35858,1.19413.796,1.78963,1.19665-.03138.82313-.6789,1.24539-1.17594,1.74348Q97.96672,62.60792,86.59064,73.96387C86.12925,74.42468,85.72435,74.987,84.99681,75.07486Z"/><path class="cls-3" d="M84.99681,75.07486q7.696-7.75705,15.39447-15.51174,5.03455-5.05653,10.105-10.07717c8.55765,4.92641,17.24954,9.63616,25.63335,14.84209a12.68211,12.68211,0,0,1,.38165,21.25373c-8.39168,5.5114-17.25565,10.29886-26.06678,15.13629Q98.4536,88.6906,86.46524,76.66058C85.95717,76.15052,85.48544,75.60428,84.99681,75.07486Z"/><path class="cls-4" d="M75.723,65.954C63.08118,53.12047,50.31473,40.40945,37.59159,27.65623c-4.96884-4.98081-10.03089-9.87281-14.88031-14.967-2.57227-2.70217-5.17415-5.36593-7.8531-7.9582a10.495,10.495,0,0,0-3.62208,6.84912h0l-.00008-.00032a2.209,2.209,0,0,0-.30443,1.38714q.00826,7.5.03369,15.00005,0,7.782-.00008,15.564.00012,9.2293.00008,18.45893V76.47676q0,9.22883-.00008,18.45766.00012,7.77825.00008,15.55648,0,7.78155-.00008,15.5634c-.01236,3.66924-.17406,7.34572.008,11.00489a11.17414,11.17414,0,0,0,3.90526,8.22461q3.84779-3.92762,7.6955-7.85429l-.00016-.00031h.00024c2.786-2.575,5.45048-5.27052,8.02087-8.05992l-.00008-.00032h.00008c2.48363-2.30067,4.892-4.676,7.15276-7.19771v-.00032h.00008c3.35071-2.95283,6.28568-6.3141,9.36629-9.5324a74.8059,74.8059,0,0,0,7.26644-7.15331l-.00008-.00032.00016.00032c3.32387-2.97992,6.31843-6.28356,9.375-9.52642a84.32022,84.32022,0,0,0,7.61992-7.52616l-.00008-.00031.00016.00031c2.5167-2.31768,4.94593-4.722,7.23251-7.26857a84.03145,84.03145,0,0,0,6.13272-6.11823C81.6304,72.1182,78.71843,68.995,75.723,65.954Z"/></svg>