<?xml version="1.0" encoding="utf-8"?>
<!-- Generator: Adobe Illustrator 23.0.5, SVG Export Plug-In . SVG Version: 6.00 Build 0)  -->
<svg version="1.1" id="Layer_1" xmlns="http://www.w3.org/2000/svg" xmlns:xlink="http://www.w3.org/1999/xlink" x="0px" y="0px"
	 viewBox="0 0 140 140" style="enable-background:new 0 0 140 140;" xml:space="preserve">
<style type="text/css">
	.st0{fill:#0065CE;stroke:#0065CE;stroke-width:4.0092;stroke-miterlimit:10;}
</style>
<title>popular-list</title>
<path class="st0" d="M134.8,63.9c4.1-4.1,4.1-10.1,0-13.6c-1.8-1.8-3.5-2.4-5.9-3L95.8,42c-1.2,0-2.4-1.2-3-2.4L78,9.5
	c-2.4-4.1-8.3-5.9-13-3.5c-1.8,1.2-3.5,2.4-4.7,4.7L46.1,40.8c-0.6,1.2-1.2,1.8-3,1.8l-32.5,5.3c-5.9,0.6-8.9,5.9-8.3,10.6
	c0.6,2.4,1.2,4.1,3,5.9l23.7,23.1c1.2,1.2,1.8,2.4,1.8,3.5l-5.9,32.5c-0.6,3.5,1.2,7.1,4.1,9.5c3,2.4,6.5,2.4,10.1,0.6l29.6-16
	c1.2-0.6,2.4-0.6,3.5,0l29.6,16c4.7,2.4,10.6,0.6,13-4.1c1.2-1.8,1.2-4.1,1.2-5.9l-5.9-32.5c0-1.2,0-2.4,1.2-3.5L134.8,63.9z
	 M103.4,91.7l5.9,32.5c0.6,2.4-1.2,4.1-3,4.7c-0.6,0-1.8,0-2.4-0.6l-29.6-16c-3-1.8-5.9-1.8-8.9,0L35.4,129c-1.8,1.2-4.1,0-5.3-1.8
	c-0.6-0.6-0.6-1.8-0.6-2.4l5.9-32.5c0.6-3.5-0.6-5.9-3-8.3L8.8,60.9C7,58.6,7,56.2,8.8,55c1.2-1.2,1.8-1.2,2.4-1.8l33.1-5.3
	c3.5-0.6,5.9-2.4,7.1-5.3l14.8-30.2c1.2-1.8,3.5-3,5.3-1.8c0.6,0.6,1.2,1.2,1.8,1.8l14.8,30.2c1.8,3,4.1,5.3,7.1,5.3l33.1,5.3
	c2.4,0.6,3.5,2.4,3.5,4.7c0,0.6-0.6,1.8-1.2,2.4L107,83.4C104,85.8,102.8,88.7,103.4,91.7L103.4,91.7z"/>
</svg>
