<?xml version="1.0" encoding="utf-8"?>
<!-- Generator: Adobe Illustrator 23.0.5, SVG Export Plug-In . SVG Version: 6.00 Build 0)  -->
<svg version="1.1" id="Layer_1" xmlns="http://www.w3.org/2000/svg" xmlns:xlink="http://www.w3.org/1999/xlink" x="0px" y="0px"
	 viewBox="0 0 140 140" style="enable-background:new 0 0 140 140;" xml:space="preserve">
<style type="text/css">
	.st0{fill:#0065CE;stroke:#0065CE;stroke-width:2.9492;stroke-miterlimit:10;}
	.st1{fill:#0065CE;stroke:#0065CE;stroke-width:2;stroke-miterlimit:10;}
</style>
<title>real-estate</title>
<path class="st0" d="M464.8,99c0.6-2.4,2.4-4.1,4.1-4.7c4.1-1.2,8.3-1.2,12.4,0c2.4,1.2,4.1,3.5,4.1,6.5c0,1.2,0.6,1.8,1.8,1.8
	c1.8,0,4.1,0,5.9,0c0.6,0,1.2,0,1.2-1.2c0-4.7,0-10,0-14.2v-0.6c-1.2,0.6-2.4,1.8-3.5,2.9s-1.8,1.8-2.9,2.4c-2.9,2.4-7.7,1.8-10-1.2
	c-1.2-3.5-1.2-7.1,1.2-9.4c2.4-2.4,4.7-4.1,6.5-6.5c2.9-2.9,5.9-5.9,8.8-8.3c0-0.6,0-1.2,0-1.8c0-5.3,0-11.2,0-15.9
	c0-3.5,1.2-4.7,4.7-4.7c2.9,0,5.9,0,8.8,0c3.5,0,4.7,1.2,4.7,4.1v0.6c0.6,0,1.2-0.6,1.2-0.6c4.7-4.1,9.4-8.8,13.6-13
	c2.4-2.9,7.1-3.5,10-0.6l0.6,0.6c6.5,5.9,13,12.4,18.9,17.7c3.5,2.4,5.9,4.7,8.8,7.7c0.6,0,0.6,0.6,0.6,0.6c1.2,0.6,1.2,2.4,0.6,2.9
	l0,0c-1.2,1.2-1.8,1.2-3.5,0c-1.8-1.2-2.9-2.9-4.1-4.1c-7.7-7.7-15.3-14.2-23-21.8c-1.8-1.8-3.5-1.8-5.3-0.6c-0.6,0-0.6,0.6-0.6,0.6
	c-10.6,10-20.6,19.5-30.7,28.9c-5.9,5.3-11.2,11.2-16.5,15.9c-1.8,1.8-2.4,3.5-0.6,4.7c1.2,1.2,2.9,1.2,4.7-0.6
	c13-12.4,25.4-23.6,38.3-36c1.8-1.8,4.1-3.5,5.9-5.3c1.8-1.2,2.4-1.2,4.1,0c6.5,5.9,12.4,11.8,18.3,17.1
	c8.8,8.3,17.1,15.9,25.4,24.2c0.6,1.2,2.4,1.2,3.5,1.2c1.2-0.6,1.8-1.2,1.8-2.4s-0.6-2.4-1.2-2.9c-3.5-4.1-20.6-19.5-23.6-23
	c-0.6,0-0.6-0.6-1.2-0.6c-0.6-1.2-0.6-2.4,0.6-3.5c0.6-1.2,1.2-0.6,2.4,0c0,0,0,0,0.6,0c4.1,3.5,21.2,20.1,24.8,23.6
	c2.9,2.9,2.9,7.1,0,10c-0.6,1.2-1.8,1.8-2.9,1.8c-2.4,0.6-4.7,0-6.5-1.2c-1.2-1.2-2.4-2.4-4.1-3.5c-0.6-0.6-1.2-1.2-1.8-1.8
	c-0.6,0.6-0.6,1.2-0.6,1.2c0,11.2,0,21.2,0,32.4c0,0.6,0,1.2,0,1.2c0.6,0,0.6,0,1.2-0.6c5.3-3.5,10.6-7.1,14.7-10.6
	c3.5-2.9,9.4-2.4,12.4,1.8c2.9,3.5,2.4,8.8-1.2,11.8c-3.5,3.5-7.1,6.5-10.6,10c-4.7,4.1-10,8.8-14.2,13c-4.1,3.5-8.8,5.9-14.2,6.5
	c-10,1.2-18.9,2.9-28.9,4.1c-4.1,0.6-7.7,1.2-11.8,1.8c-1.8,0-4.1,0-5.9-0.6c-8.8-3.5-17.1-6.5-25.4-10c-1.8-0.6-1.8-0.6-1.8,1.2
	c-0.6,2.9-3.5,5.3-6.5,5.9c-2.4,0-5.3,0-7.7,0c-2.9,0-5.9-2.4-6.5-5.9v-5.9c0.6-1.2,1.8-1.2,2.4-1.2c1.2,0.6,1.2,1.2,1.8,2.4
	c0,1.2,0,1.8,0,2.9c0,1.8,1.2,2.9,2.9,2.9l0,0c2.4,0.6,4.7,0.6,7.1,0c1.2,0,2.4-1.2,2.4-2.4c0-0.6,0-1.2,0-1.8c0-14.2,0-28.9,0-43.1
	c0-0.6,0-0.6,0-1.2c0-1.8-1.2-3.5-2.9-3.5h-0.6c-1.8,0-2.9,0-4.7,0c-3.5,0-4.7,1.2-4.7,4.1c0,9.4,0,36,0,44.8c0,1.2,0,2.4-1.2,2.9
	s-1.8,0-2.9-1.2L464.8,99z M486,123.8c0,5.3,0,11.2,0,15.9c0,1.2,0.6,2.4,1.8,2.4c8.8,3.5,17.7,6.5,26.5,10c1.8,1.8,4.1,1.8,6.5,1.2
	c13-1.8,25.4-3.5,38.3-5.9c4.1-0.6,8.3-2.4,11.8-5.3c6.5-5.9,13-11.8,18.9-17.1c2.4-1.8,4.1-4.1,6.5-5.9c1.2-1.2,1.8-2.9,1.2-4.7
	s-1.8-2.9-3.5-2.9c-1.2,0-2.9,0-4.1,1.2c-7.7,5.3-15.3,10.6-23,15.3c-2.4,1.8-5.9,2.9-8.8,2.4c-4.1-0.6-8.3-0.6-12.4-1.2
	c-6.5-0.6-13.6-1.2-19.5-1.8c-5.3-0.6-10.6-1.2-14.7-1.2c-1.2,0-2.4-1.2-2.4-2.4l0,0c0-1.2,1.2-1.8,2.4-1.8l0,0c1.2,0,2.4,0,3.5,0
	c5.9,0.6,11.2,1.2,16.5,1.2c6.5,0.6,13,1.2,18.9,1.8c1.2,0,1.2,0,1.2-1.2c-0.6-3.5-3.5-6.5-7.1-7.1c-5.9-0.6-11.2-1.2-16.5-1.8
	c-7.1-0.6-14.2-2.4-20.1-5.9c-5.9-3.5-13.6-5.3-20.1-5.3c-1.2,0-1.8,0.6-1.8,1.8C486,112.6,486,118.5,486,123.8z M566.8,102.6
	L566.8,102.6c0-6.5,0-13,0-18.9c0-1.2-0.6-2.4-1.2-2.9c-5.9-5.9-12.4-11.8-17.7-16.5c-4.7-4.1-9.4-8.8-14.2-13
	c-0.6-0.6-1.2-0.6-1.8,0c-11.2,9.4-21.8,19.5-32.4,30.1c-0.6,0-1.2,0.6-1.2,1.2c0,6.5,0,13,0,18.9c0,0.6,0.6,1.8,1.2,1.8l0,0
	c3.5,1.2,7.1,2.4,10,4.1s5.3,2.9,8.3,3.5c1.8,0.6,1.8,0.6,1.8-1.2c0-6.5,0-13.6,0-19.5c0-1.8,1.2-4.1,3.5-4.1l0,0c0.6,0,1.2,0,1.8,0
	c5.3,0,10.6,0,14.7,0s5.3,1.2,5.3,5.3c0,7.7,0,14.7,0,22.4c0,0.6,0,1.2,1.2,1.8c4.7,1.2,8.8,5.9,8.8,11.2c0,1.2,0.6,1.2,1.2,1.2
	c2.4,0.6,5.3,0,7.1-1.8c0.6-0.6,0.6-0.6,1.2-0.6c1.2-0.6,1.8-1.8,1.8-2.9C566.8,115.6,566.8,109.1,566.8,102.6z M541.4,102.6
	L541.4,102.6c0-3.5,0-7.1,0-10.6c0-1.2,0-1.8-1.2-1.8c-4.7,0-10,0-14.2,0c-1.2,0-1.2,0.6-1.2,1.2c0,6.5,0,13,0,19.5
	c0,1.2,0.6,1.2,1.2,1.8c5.3,0.6,10,1.2,14.7,1.8c1.2,0,1.2,0,1.2-1.2C541.4,109.1,541.4,106.1,541.4,102.6L541.4,102.6z M499,61.9
	c2.4-2.4,4.1-4.1,6.5-5.9c2.4-1.2,2.9-4.1,2.4-6.5l0,0c0-1.2,0-1.2-1.2-1.2c-2.4,0-4.7,0-7.1,0c-0.6,0-0.6,0.6-0.6,1.2
	c0,4.1,0,7.7,0,11.8C499,61.3,499,61.3,499,61.9z"/>
<g>
	<path class="st1" d="M124,135.5H95.2c-6.4,0-11.7-5.3-11.7-11.7v-23.5c0-2.3-1.9-4.3-4.3-4.3H61.5c-2.3,0-4.3,1.9-4.3,4.3v23.2
		c0,6.4-5.3,11.7-11.7,11.7H16.3c-6.4,0-11.7-5.3-11.7-11.7V49.1c0-3.2,1.7-6.2,4.5-7.9L65.4,5.6c3-1.9,7-1.9,10,0l56.3,35.6
		c2.8,1.7,4.3,4.7,4.3,7.9v74.2C136,130.2,130.6,135.5,124,135.5z M61.3,88.6H79c6.4,0,11.7,5.3,11.7,11.7v23.2
		c0,2.3,1.9,4.3,4.3,4.3h29c2.3,0,4.3-1.9,4.3-4.3V49.3c0-0.6-0.4-1.3-0.9-1.7L71.4,12c-0.6-0.4-1.5-0.4-1.9,0L13.1,47.6
		c-0.6,0.4-0.9,1.1-0.9,1.7v74.4c0,2.3,1.9,4.3,4.3,4.3h29c2.3,0,4.3-1.9,4.3-4.3v-23.5C49.6,93.9,54.9,88.6,61.3,88.6z"/>
</g>
</svg>
