<svg id="Layer_1" data-name="Layer 1" xmlns="http://www.w3.org/2000/svg" viewBox="0 0 140 140"><defs><style>.cls-1{fill:#0065ce;}</style></defs><title>serve</title><path class="cls-1" d="M76.34289,5.95644A12.62885,12.62885,0,0,1,85.192,13.058a14.32777,14.32777,0,0,1,1.1082,6.23893,1.64225,1.64225,0,0,0,1.29019,1.86875A30.37456,30.37456,0,0,1,93.121,23.49476a1.52163,1.52163,0,0,0,2.19626-.41348,12.18163,12.18163,0,0,1,6.84725-4.20909,11.806,11.806,0,0,1,10.81117,2.85467c2.32185,2.13168,4.54762,4.37865,6.69686,6.68547a12.13183,12.13183,0,0,1-.162,16.49837c-2.07893,2.21021-2.06,2.20181-.82991,4.97606a40.12884,40.12884,0,0,1,1.54648,3.92189,1.63574,1.63574,0,0,0,1.86933,1.2918,12.85464,12.85464,0,0,1,9.53381,3.2817,11.56754,11.56754,0,0,1,3.89111,8.47265c.05388,3.02618.03682,6.05429.00762,9.08114A12.05159,12.05159,0,0,1,124.5147,87.67425a5.38214,5.38214,0,0,1-1.26738.12542c-2.043-.35283-2.965.61761-3.47944,2.50815a22.19589,22.19589,0,0,1-1.81341,4.22008,1.6143,1.6143,0,0,0,.3768,2.31283,12.061,12.061,0,0,1,4.174,6.72436,11.905,11.905,0,0,1-2.92649,11.03386c-2.05289,2.22143-4.21346,4.34968-6.41046,6.43031a12.11509,12.11509,0,0,1-16.68868-.02183c-2.18941-2.05827-2.184-2.04627-4.978-.79727a21.29014,21.29014,0,0,1-3.32065,1.32392,2.20384,2.20384,0,0,0-1.90135,2.61143,12.216,12.216,0,0,1-3.1907,8.91965,11.57275,11.57275,0,0,1-8.56435,3.97014c-2.98363.05141-5.969.033-8.95327.00864a12.04785,12.04785,0,0,1-11.84215-11.04221,4.53572,4.53572,0,0,1-.1162-1.13973c.42041-2.18847-.72062-3.08629-2.65308-3.64246a24.83135,24.83135,0,0,1-4.33286-1.876,1.31773,1.31773,0,0,0-1.87308.3222,12.59618,12.59618,0,0,1-6.9103,4.35187A11.90106,11.90106,0,0,1,26.81,121.0957c-2.24691-2.08841-4.41552-4.26922-6.51483-6.50661A12.09406,12.09406,0,0,1,20.39,98.00191c2.07373-2.19261,2.0583-2.18574.81609-4.97782a26.56109,26.56109,0,0,1-1.456-3.681c-.34059-1.23761-1.01887-1.5563-2.21887-1.53087a12.824,12.824,0,0,1-9.283-3.27686,13.49588,13.49588,0,0,1-3.80471-6.67961V65.06229A13.506,13.506,0,0,1,8.14737,58.4709a12.58385,12.58385,0,0,1,9.241-3.35438,2.0634,2.0634,0,0,0,2.43628-1.76907,22.82234,22.82234,0,0,1,1.37143-3.43666c1.24907-2.79772,1.26161-2.79212-.87725-5.07026a12.08019,12.08019,0,0,1-.13306-16.38615c2.16955-2.34239,4.43138-4.61123,6.783-6.77013a11.76725,11.76725,0,0,1,10.69144-2.829,12.47781,12.47781,0,0,1,7.045,4.34923,1.36886,1.36886,0,0,0,1.97334.33883,32.15015,32.15015,0,0,1,5.64411-2.37809,1.57226,1.57226,0,0,0,1.2657-1.75329,14.64268,14.64268,0,0,1,1.1142-6.36137,12.65221,12.65221,0,0,1,8.84687-7.09409ZM12.2138,71.46082c0,1.279-.03618,2.55925.00743,3.83677a4.36967,4.36967,0,0,0,4.65682,4.52283c1.70519.01725,3.4109-.01189,5.11594.01136a3.903,3.903,0,0,1,4.00686,2.9469A52.00076,52.00076,0,0,0,30.8175,94.44551a3.86728,3.86728,0,0,1-.71342,5.02389c-1.18286,1.22806-2.4151,2.4084-3.60743,3.62751-1.92547,1.9687-2.05447,4.26285-.20422,6.25327q2.78427,2.99517,5.78818,5.78392c1.94768,1.807,4.24391,1.69415,6.16094-.162,1.225-1.18612,2.405-2.41865,3.627-3.60793a3.9081,3.9081,0,0,1,5.12349-.761A51.68377,51.68377,0,0,0,58.539,115.3764a3.9392,3.9392,0,0,1,3.03518,4.07082c.02163,1.70508-.00787,3.4108.01119,5.11594a4.32148,4.32148,0,0,0,4.43121,4.60905c2.64107.07525,5.28836.08442,7.92858-.0052a4.29974,4.29974,0,0,0,4.36054-4.54621c.02368-1.74768-.01161-3.49619.01411-5.24381a3.90783,3.90783,0,0,1,2.97814-3.98325,52.04844,52.04844,0,0,0,11.66528-4.82,3.85176,3.85176,0,0,1,5.01678.74914c1.25657,1.21477,2.46074,2.48381,3.71946,3.69627a4.11533,4.11533,0,0,0,6.06471.15194q3.05078-2.8173,5.878-5.87391c1.7977-1.94294,1.66332-4.23018-.20551-6.15929-1.15676-1.1941-2.35623-2.34671-3.519-3.53506-1.63427-1.67015-1.91371-3.29109-.753-5.33228a51.29818,51.29818,0,0,0,4.71708-11.43324,3.92706,3.92706,0,0,1,3.95924-3.00388c1.74756-.02775,3.49608.00783,5.24379-.01435a4.32642,4.32642,0,0,0,4.57669-4.46564q.10554-3.89808-.00079-7.801a4.32327,4.32327,0,0,0-4.58645-4.45376c-1.74776-.02071-3.49627.01423-5.2438-.01439a3.89622,3.89622,0,0,1-3.91628-2.8917A52.10443,52.10443,0,0,0,109.1,48.524a3.88755,3.88755,0,0,1,.737-5.12466c1.18767-1.22354,2.42144-2.40237,3.60753-3.62741,1.8647-1.92593,1.99179-4.21849.191-6.16019q-2.82395-3.04493-5.87994-5.8721a4.11384,4.11384,0,0,0-6.06294.16589c-1.25742,1.21388-2.46207,2.48239-3.71933,3.69643a3.85846,3.85846,0,0,1-5.0197.73826A51.54271,51.54271,0,0,0,81.289,27.52033a3.90518,3.90518,0,0,1-2.96916-3.9901c-.02525-1.74764.0101-3.49614-.01409-5.2438A4.298,4.298,0,0,0,73.937,13.75007c-2.64039-.08682-5.28756-.07981-7.92862-.00406a4.31679,4.31679,0,0,0-4.42316,4.61472c-.019,1.74779.01647,3.49633-.01489,5.24378A3.8984,3.8984,0,0,1,58.65042,27.499,52.18664,52.18664,0,0,0,46.9841,32.31859a3.89421,3.89421,0,0,1-5.1208-.77148c-1.222-1.18928-2.40237-2.42147-3.62746-3.6075a4.13961,4.13961,0,0,0-6.15991-.15237q-2.99582,2.78367-5.78714,5.785c-1.84738,1.98817-1.71537,4.28264.21175,6.253,1.16254,1.18862,2.36038,2.34277,3.51973,3.53443a3.936,3.936,0,0,1,.737,5.23182,50.50372,50.50372,0,0,0-4.721,11.43011A3.9337,3.9337,0,0,1,21.988,63.08622c-1.705.02371-3.41075-.00573-5.11594.01137a4.36347,4.36347,0,0,0-4.651,4.52646C12.17809,68.90161,12.21375,70.18181,12.2138,71.46082Z"/><path class="cls-1" d="M98.63457,71.39757A28.68892,28.68892,0,1,1,69.88681,42.76933,28.88855,28.88855,0,0,1,98.63457,71.39757Zm-28.69788,20.723a20.66175,20.66175,0,1,0-20.652-20.64043A20.62417,20.62417,0,0,0,69.93669,92.12058Z"/></svg>