<svg id="Layer_1" data-name="Layer 1" xmlns="http://www.w3.org/2000/svg" viewBox="0 0 150 150"><defs><style>.cls-1{fill:#00d4b4;}.cls-2{fill:#fefefe;}</style></defs><title>subscribe</title><path class="cls-1" d="M1.82461,110.5558l-.0005-70.07946a38.557,38.557,0,0,1,38.4442-38.4442l70.07966.00051a38.55623,38.55623,0,0,1,38.44355,38.44369l.00035,70.07946A38.557,38.557,0,0,1,110.348,149l-70.07966-.0005A38.55617,38.55617,0,0,1,1.82461,110.5558Z"/><path class="cls-2" d="M31.6214,119.89763a30.80615,30.80615,0,0,0-4.67118-.01006c-.63928-.98055-.00087-2.0739-.27251-3.08667a60.52943,60.52943,0,0,1,2.03354-10.88617c.47086-1.48008.96184-2.95376,1.44368-4.43035q1.60835-3.23426,3.2167-6.46854,1.77813-2.58441,3.55626-5.16873,1.88544-2.13547,3.77087-4.271,1.7584-1.6025,3.51681-3.20492Q45.99726,81.01509,47.779,79.659c.74722-1.29642,2.21981-1.6,3.31147-2.42519a49.05238,49.05238,0,0,1,5.21489-2.58341c1.10844-.45481,1.17168-.71159.23139-1.45147a28.63655,28.63655,0,0,1-5.56708-6.49055,30.69915,30.69915,0,0,1-2.41939-4.72029,1.85261,1.85261,0,0,1-.23643-1.51425,31.827,31.827,0,0,1-1.2331-11.75763,47.92335,47.92335,0,0,1,1.30821-6.38752A39.24822,39.24822,0,0,1,52.417,34.67333a52.7567,52.7567,0,0,1,4.10249-4.46559q1.61843-1.25573,3.23685-2.51139l3.2101-1.80385,3.80988-1.50972,3.51644-.86073,2.93008-.33576q2.90546.04978,5.8108.09962,1.92848.40981,3.85715.81955l3.516,1.18641q1.481.74052,2.962,1.481,1.889,1.29048,3.778,2.581L96.063,32.05793q1.734,2.25751,3.468,4.51511a35.984,35.984,0,0,1,3.8283,9.92185,35.39969,35.39969,0,0,1-.26016,11.33949c-.07924,3.10035-1.70542,5.636-3.04331,8.2712a15.86962,15.86962,0,0,1-1.668,2.574,37.17917,37.17917,0,0,1-4.231,4.58787,48.51362,48.51362,0,0,1-4.30068,3.03373,3.50153,3.50153,0,0,1-1.492.52831,63.41424,63.41424,0,0,1-6.38574,2.37992q-1.74112.30912-3.48214.61828a15.50368,15.50368,0,0,0-3.883.23981q-1.42794.04257-2.85543.08535c-1.25627.27753-2.579.10763-3.80848.5656a12.29737,12.29737,0,0,0-3.51557.85457,11.41314,11.41314,0,0,0-3.51535,1.18111,13.27384,13.27384,0,0,0-3.83548,1.73164,12.42429,12.42429,0,0,0-3.52208,2.04853,15.34727,15.34727,0,0,0-3.23029,2.34263,19.91833,19.91833,0,0,0-3.80875,3.51567,21.293,21.293,0,0,0-3.59212,4.36618,23.3476,23.3476,0,0,0-3.34252,5.60986,35.35743,35.35743,0,0,0-3.808,12.88943l-.08306,1.95731c-.44471.85551.31635,1.90181-.42879,2.70978A15.15527,15.15527,0,0,0,31.6214,119.89763Z"/><path class="cls-2" d="M120.39067,104.7501H117.168l-3.51559-.00007-4.98045.01422c-.53759.34749-.256.88322-.25835,1.31963-.0238,4.38989-.04238,8.78029.00728,13.16976.01086.96008-.2527,1.301-1.22365,1.2357-.96787-.06508-1.94616.02487-2.91989.04684l-4.10156.00005c-.8833-.19743-.55-.91326-.55286-1.42222-.02382-4.26943-.07587-8.54048.02251-12.80776.03157-1.36984-.39026-1.80921-1.68236-1.61914a14.27772,14.27772,0,0,1-1.59588.063H92.85155l-3.80859,0H86.11327c-2.2744-.13148-2.27442-.13148-2.27441-2.49828,0-1.74273.04654-3.48721-.019-5.22747-.03418-.90828.28175-1.1722,1.15829-1.13527,1.25437.05283,2.51394-.01817,3.7713-.03629,1.25566-.70931,2.62493-.2738,3.9396-.38569.61952-.05273,1.24179.05969,1.86351.01866,1.27614-.05326,2.55394.01535,3.82888-.05041.9991-.07351.76007-.8442.76289-1.42347.01845-3.78114.00753-7.56239.0097-11.34361.00175-3.03812,1.35978-3.86982,4.24444-2.60194l3.80854-.00006c.89215-.07143,1.229.25753,1.21643,1.2277-.056,4.317.02248,8.636-.053,12.95238-.02233,1.27639.24474,1.9078,1.63606,1.67211a12.06736,12.06736,0,0,1,1.59512-.06566l3.51562.00006,6.15215,0,2.915.10732-.009,8.69339Z"/><path class="cls-1" d="M87.60425,65.69312a12.35189,12.35189,0,0,0,3.53943-3.76459c4.961-5.84326,5.02911-16.3263.14727-22.66706a13.57842,13.57842,0,0,0-3.67779-3.90728l-.00006-.00013a10.30758,10.30758,0,0,0-3.53314-2.258,9.59244,9.59244,0,0,0-3.53339-1.40369,9.86459,9.86459,0,0,0-3.51532-.61425,13.2343,13.2343,0,0,0-3.80853.01531,10.64925,10.64925,0,0,0-3.82172.83326,10.00505,10.00505,0,0,0-3.47589,1.4862l.00006.00006h-.00006a10.28821,10.28821,0,0,0-3.26868,2.27729,14.1995,14.1995,0,0,0-3.70068,4.15619c-4.23908,5.95178-4.29089,15.40313-.11566,21.0957a13.65947,13.65947,0,0,0,3.8233,4.42364,10.70615,10.70615,0,0,0,3.50018,2.40583A9.82922,9.82922,0,0,0,69.684,69.20526a5.80065,5.80065,0,0,0,2.56537.56378v.00006a12.72564,12.72564,0,0,0,4.78174.21393,8.40706,8.40706,0,0,0,3.22821-.58014A9.8381,9.8381,0,0,0,84.06055,67.963,10.62457,10.62457,0,0,0,87.60425,65.69312Z"/></svg>