<?xml version="1.0" encoding="utf-8"?>
<!-- Generator: Adobe Illustrator 23.0.5, SVG Export Plug-In . SVG Version: 6.00 Build 0)  -->
<svg version="1.1" id="Layer_1" xmlns="http://www.w3.org/2000/svg" xmlns:xlink="http://www.w3.org/1999/xlink" x="0px" y="0px"
	 viewBox="0 0 140 140" style="enable-background:new 0 0 140 140;" xml:space="preserve">
<style type="text/css">
	.st0{fill:#0065CE;stroke:#0065CE;stroke-width:5.6614;stroke-miterlimit:10;}
	.st1{fill:#3880FF;stroke:#0065CE;stroke-width:5.6614;stroke-miterlimit:10;}
	.st2{fill:#0065CE;stroke:#0065CE;stroke-width:3;stroke-miterlimit:10;}
	.st3{fill:#0065CE;}
</style>
<title>travel</title>
<path class="st0" d="M-1366.9,77c0-13.5,0-27.6,0-41.1c-0.6-7.1,4.7-12.9,10.6-13.5c0.6,0,1.8,0,2.4,0c3.5,0,7.1,0,10.6,0
	c2.4,0,2.4,0,2.4-2.4s0-5.3,0-7.6c0-5.3,4.1-8.8,8.8-8.8l0,0c7.1,0,13.5,0,20.6,0c5.3,0,8.8,4.1,8.8,8.2c0,0,0,0,0,0.6
	c0,2.4,0,5.3,0,7.6c0,1.2,0.6,1.8,1.8,1.8c4.7,0,8.2,0,12.9,0c6.5,0.6,10.6,5.9,10.6,11.8c0,14.7,0,30,0,44.7c0,12.9,0,25.9,0,39.4
	c0.6,7.1-4.7,12.3-11.2,12.3c-0.6,0-1.2,0-1.2,0l0,0c-3.5,0-2.9,0-2.9,2.9v0.6c0,1.8-0.6,2.9-1.8,2.9s-1.8-0.6-1.8-2.9
	c0-4.1,0.6-3.5-3.5-3.5c-15.3,0-30,0-45.2,0c-2.4,0-2.4,0-2.4,2.4c0,0.6,0,1.2,0,1.8c0,1.2-1.2,1.8-1.8,1.8c-1.2,0-1.8-0.6-1.8-1.8
	s0-1.8,0-2.9c0-1.2-0.6-1.8-1.8-1.8s-2.9,0-4.1,0c-5.9-1.2-9.4-5.9-9.4-11.2C-1366.9,105.2-1366.9,91.1-1366.9,77z M-1280.5,77
	c0-14.1,0-28.2,0-41.7c0.6-4.7-2.9-7.6-7.1-8.2c-0.6,0-1.2,0-1.8,0c-21.7,0-43.5,0-65.2,0c-4.1-1.2-7.6,1.8-8.2,5.9
	c0,0.6,0,1.2,0,1.8c0,27.6,0,55.8,0,84c0,1.2,0,1.8,0,2.9c1.2,4.1,4.7,6.5,8.2,6.5c21.7,0,42.9,0,64.6,0c4.7,0.6,8.8-3.5,8.8-7.6
	c0-0.6,0-0.6,0-1.2C-1281.1,104.6-1280.5,90.5-1280.5,77z M-1321.7,22.3c4.7,0,8.8,0,13.5,0c1.2,0,1.8-0.6,1.8-1.8
	c0-2.4,0-5.3,0-7.6c0-2.9-2.4-5.3-5.3-5.3h-0.6c-7.1,0-13.5,0-20.6,0c-2.9,0-5.3,1.8-5.3,4.7v0.6c0,2.4,0,5.3,0,7.6
	c0,1.8,0.6,1.8,1.8,1.8C-1330.5,21.7-1326.4,22.3-1321.7,22.3z"/>
<path class="st0" d="M-1324,77c0-11.8,0-22.9,0-35.3c0-1.2,0-1.8,0-2.9s1.2-1.8,2.4-1.8c0.6,0,1.2,0.6,1.2,1.2c0,0.6,0,1.8,0,2.4
	c0,23.5,0,47,0,70.5c0,0.6,0,1.8,0,2.4c0,1.2-1.2,1.8-1.8,1.8c-1.2,0-1.8-0.6-1.8-1.8c0-0.6,0-1.8,0-2.4
	C-1324,99.9-1324,88.7-1324,77z"/>
<path class="st1" d="M-1342.8,77c0,11.8,0,23.5,0,35.8c0,2.4-0.6,3.5-1.8,3.5s-1.8-1.2-1.8-3.5c0-23.5,0-47.6,0-71.7
	c0-2.4,0.6-3.5,1.8-3.5s1.8,1.2,1.8,3.5C-1342.8,52.9-1342.8,64.6-1342.8,77z"/>
<title>travel</title>
<path class="st0" d="M543.1,48.9c0-13.5,0-27.6,0-41.1c-0.6-7.1,4.7-12.9,10.6-13.5c0.6,0,1.8,0,2.4,0c3.5,0,7.1,0,10.6,0
	c2.4,0,2.4,0,2.4-2.4s0-5.3,0-7.6c0-5.3,4.1-8.8,8.8-8.8l0,0c7.1,0,13.5,0,20.6,0c5.3,0,8.8,4.1,8.8,8.2c0,0,0,0,0,0.6
	c0,2.4,0,5.3,0,7.6c0,1.2,0.6,1.8,1.8,1.8c4.7,0,8.2,0,12.9,0c6.5,0.6,10.6,5.9,10.6,11.8c0,14.7,0,30,0,44.7c0,12.9,0,25.9,0,39.4
	c0.6,7.1-4.7,12.3-11.2,12.3c-0.6,0-1.2,0-1.2,0l0,0c-3.5,0-2.9,0-2.9,2.9v0.6c0,1.8-0.6,2.9-1.8,2.9s-1.8-0.6-1.8-2.9
	c0-4.1,0.6-3.5-3.5-3.5c-15.3,0-30,0-45.2,0c-2.4,0-2.4,0-2.4,2.4c0,0.6,0,1.2,0,1.8c0,1.2-1.2,1.8-1.8,1.8c-1.2,0-1.8-0.6-1.8-1.8
	c0-1.2,0-1.8,0-2.9c0-1.2-0.6-1.8-1.8-1.8s-2.9,0-4.1,0c-5.9-1.2-9.4-5.9-9.4-11.2C543.1,77.1,543.1,63,543.1,48.9z M629.4,48.9
	c0-14.1,0-28.2,0-41.7c0.6-4.7-2.9-7.6-7.1-8.2c-0.6,0-1.2,0-1.8,0c-21.7,0-43.5,0-65.2,0c-4.1-1.2-7.6,1.8-8.2,5.9
	c0,0.6,0,1.2,0,1.8c0,27.6,0,55.8,0,84c0,1.2,0,1.8,0,2.9c1.2,4.1,4.7,6.5,8.2,6.5c21.7,0,42.9,0,64.6,0c4.7,0.6,8.8-3.5,8.8-7.6
	c0-0.6,0-0.6,0-1.2C628.9,76.5,629.4,62.4,629.4,48.9z M588.3-5.8c4.7,0,8.8,0,13.5,0c1.2,0,1.8-0.6,1.8-1.8c0-2.4,0-5.3,0-7.6
	c0-2.9-2.4-5.3-5.3-5.3h-0.6c-7.1,0-13.5,0-20.6,0c-2.9,0-5.3,1.8-5.3,4.7v0.6c0,2.4,0,5.3,0,7.6c0,1.8,0.6,1.8,1.8,1.8
	C579.5-6.4,583.6-5.8,588.3-5.8z"/>
<path class="st0" d="M-1297,77c0,11.8,0,23.5,0,35.8c0,2.4-0.6,3.5-1.8,3.5s-1.8-1.2-1.8-3.5c0-23.5,0-47.6,0-71.7c0,0,0,0,0-0.6
	c0-2.4,0.6-2.9,1.8-2.9s1.8,1.2,1.8,2.9C-1297,52.3-1297,64.6-1297,77z"/>
<g>
	<path class="st2" d="M-971.6,30.2c0.2,6.6-2.7,11.8-7.4,16.2c-8,7.3-16.1,14.6-24.1,21.9c-0.8,0.7-1.1,1.4-1.2,2.5
		c-0.3,15.5-0.7,30.9-1.1,46.4c-0.1,3.1-0.3,6.2-1.9,9c-2.7,4.7-8,4.6-11.2,3.3c-0.9-0.4-1.3-1.2-1.5-2c-0.7-3.3-1.5-6.7-2.2-10
		c-1-4.9-2-9.9-3.1-14.8c-0.7-3.3-1.4-6.7-2.1-10c-0.1-0.5-0.1-1.2-0.5-1.4c-0.6-0.3-0.9,0.5-1.2,0.8c-10,9.1-20,18.2-29.9,27.2
		c-0.4,0.4-0.8,0.8-1.3,1.1c-1.2,0.8-2.4,0.8-3.3-0.2c-2.8-3-5.7-6.1-8.4-9.2c-1.1-1.2-0.9-2.6,0.3-3.7c0.8-0.8,1.6-1.5,2.4-2.2
		c-0.4-0.5-0.9-0.4-1.3-0.4c-5.6-0.5-11.3-1-16.9-1.5c-2.9-0.3-3.7-1.3-3.2-4.1c0.7-3.7,1.5-7.3,2.3-10.9c0.4-1.8,1.2-2.5,3.1-2.6
		c7.9-0.4,15.8-0.9,23.7-1.2c0.9,0,1.6-0.3,2.2-0.9c3.6-3.3,7.2-6.6,10.8-9.9c-0.2-0.5-0.6-0.5-0.9-0.6c-8.9-2.8-17.7-5.5-26.6-8.2
		c-3.8-1.2-4.9-2.9-4.1-7c0.8-4.2,3.6-6.7,8.2-7.2c3.3-0.4,6.6,0.1,10,0.3c11.4,0.8,22.8,1.6,34.2,2.5c1,0.1,1.7-0.2,2.5-0.9
		c9.2-8.4,18.4-16.8,27.5-25.2c3-2.7,6.2-4.7,10.1-5.9c5.8-1.7,11.5-0.1,14.7,4.9C-972.5,27.3-972.1,28.7-971.6,30.2z M-1004,61.9
		c0.1,0,0.2,0.1,0.3,0.1c1.5-1.3,3-2.7,4.5-4.1c6-5.5,12.1-11,18.1-16.7c2.4-2.3,4-5.2,4.4-8.6c0.5-4.7-2.3-7.6-6.9-7.3
		c-3.9,0.3-7.3,2-10.2,4.7c-10.5,9.6-21.1,19.2-31.7,28.8c-10.4,9.5-20.8,18.9-31.2,28.4c-1,0.9-2.1,1.4-3.5,1.5
		c-7.3,0.4-14.7,0.8-22,1.2c-1.1,0.1-1.6,0.4-1.8,1.5c-0.2,1.6-0.7,3.1-1,4.6c-0.4,1.9-0.7,1.8,1.4,2c6.7,0.6,13.4,1.2,20.1,1.9
		c1.2,0.1,2.2,0.5,2.6,1.7c0.4,1.3-0.1,2.2-1,3c-1.4,1.2-2.7,2.5-4.1,3.7c-0.7,0.6-0.7,1-0.1,1.7c1.1,1.1,2.1,2.3,3.1,3.4
		c1.1,1.3,1.1,1.3,2.4,0.1c10.1-9.2,20.1-18.3,30.3-27.5c1-0.9,1.2-1.8,0.9-3.1c-0.5-1.8-0.8-3.6-1.1-5.4c-0.2-1.3,0.4-2.4,1.5-2.8
		c1.1-0.4,2.1-0.2,2.8,0.7c0.4,0.4,0.5,1,0.6,1.6c1,4.7,2,9.4,3,14.1c1.1,5,2.1,9.9,3.2,14.9c1.2,5.8,2.4,11.7,3.6,17.5
		c0.3,1.6,1.2,1.9,2.7,1.3c0.7-0.3,1.1-0.8,1.4-1.5c1-1.9,1.1-4,1.2-6.1c0.5-19.5,0.9-39.1,1.3-58.6c0-0.6,0-1.2,0.2-1.8
		c0.5-1.8,2.6-2.4,4-1.3c0.7,0.6,0.9,1.5,0.9,2.4C-1004,59.3-1004,60.6-1004,61.9z M-1031.7,57.8c-0.6-0.4-1.1-0.3-1.6-0.4
		c-6.5-0.5-13-0.9-19.5-1.4c-5.6-0.4-11.2-0.9-16.8-1.1c-1.5,0-2.9,0.3-4.2,1c-1.1,0.5-1.4,1.5-1.5,2.6c0,0.8,0.6,0.9,1.2,1.1
		c9.6,3,19.3,5.9,28.9,8.9c0.9,0.3,1.5,0.1,2.2-0.5c2.1-2,4.3-3.9,6.4-5.8C-1035,60.8-1033.4,59.4-1031.7,57.8z"/>
</g>
<g>
	<path class="st3" d="M2.4,77.7c0.3-0.8,0.9-1.4,1.5-2c3.2-3.2,6.4-6.4,9.6-9.6c1.4-1.5,3-1.9,5-1.3c8.2,2.3,16.4,4.5,24.6,6.9
		c1.1,0.3,1.9,0.1,2.7-0.7c5.4-5.5,10.9-11,16.4-16.4c1.2-1.2,1.2-1.2-0.3-1.9c-14.2-7.4-28.5-14.8-42.7-22.3
		c-3.4-1.8-3.9-4.7-1.2-7.4c3.6-3.6,7.3-7.2,10.9-10.9c1.6-1.7,3.4-2.1,5.6-1.5c17.3,4.9,34.7,9.8,52,14.8c2.9,0.9,4.7,0.4,6.8-1.8
		c4.2-4.5,8.5-9.1,13.3-13c5.4-4.4,11.7-7,18.5-8c7.6-1.1,13.6,5.3,12.3,12.9C136,24,132.1,31.3,126,37.4
		c-3.7,3.7-7.4,7.5-11.2,11.2c-0.7,0.7-0.9,1.3-0.6,2.3c5.2,18.1,10.3,36.2,15.4,54.3c0.7,2.4,0.3,4.3-1.6,6.1
		c-3.7,3.5-7.2,7.1-10.8,10.7c-2.7,2.7-5.7,2.3-7.4-1.2c-7.4-14.1-14.7-28.2-22.1-42.3c-0.1-0.2-0.2-0.4-0.3-0.6
		c-0.4-1-0.8-1.1-1.7-0.3c-3.9,4-7.9,7.9-11.8,11.9c-1.6,1.6-3.2,3.3-4.9,4.8c-0.8,0.7-0.9,1.4-0.7,2.5c2.3,8.2,4.5,16.4,6.9,24.6
		c0.6,2.1,0.2,3.8-1.4,5.3c-3.1,3.1-6.2,6.2-9.3,9.3c-0.7,0.7-1.4,1.2-2.2,1.6c-0.9,0-1.8,0-2.6,0c-1.2-0.6-2-1.6-2.7-2.8
		c-5.9-10.8-11.9-21.5-17.8-32.3c-0.4-0.7-0.9-1.2-1.6-1.6C26.8,94.9,16,89,5.2,83c-1.2-0.7-2.2-1.5-2.8-2.7
		C2.4,79.5,2.4,78.6,2.4,77.7z M129.5,13.2c0-1.7-1.5-2.8-3.2-2.6c-6.9,1-12.7,4.1-17.6,9C89.1,39.3,69.4,58.9,49.9,78.6
		c-2,2-3.9,2.4-6.5,1.7c-7-2.1-14-3.7-20.9-5.9c-3.4-1.1-5.6-0.6-7.8,2.2c-1.4,1.9-1.7,1.5,0.4,2.6c9.3,5.2,18.6,10.3,27.9,15.4
		c1.1,0.6,1.9,1.4,2.6,2.6c2.6,4.8,5.3,9.6,8,14.4c2.6,4.7,5.2,9.5,7.8,14.2c0.5,1,1,1,1.7,0.2c0.8-0.9,1.6-1.8,2.5-2.5
		c1.1-0.9,1.2-1.9,0.8-3.2c-2.2-7.9-4.3-15.8-6.6-23.6c-0.7-2.5-0.3-4.4,1.6-6.3c19.7-19.6,39.3-39.3,59-58.9c2.8-2.8,5-5.9,6.6-9.4
		C128.3,19.1,129.1,16.2,129.5,13.2z M107,56.6c-0.4,0.1-0.7,0.5-0.9,0.7c-4,4-8.1,8.1-12.1,12.1C93,70.3,93,71,93.5,72
		c3.4,6.5,6.8,13,10.2,19.5c3.5,6.7,7,13.3,10.4,20c0.7,1.3,0.7,1.3,1.8,0.2c1.5-1.5,2.9-3,4.4-4.4c0.8-0.7,0.9-1.4,0.6-2.4
		c-3.3-11.6-6.6-23.2-9.9-34.9c-1.2-4.1-2.3-8.2-3.5-12.3C107.4,57.3,107.5,56.8,107,56.6z M34.2,18.9c-0.5-0.1-0.8,0.2-1.1,0.5
		c-1.6,1.6-3.1,3.2-4.8,4.7c-0.9,0.8-0.8,1.2,0.2,1.7C41.7,32.7,55,39.6,68.1,46.6c1,0.5,1.6,0.5,2.4-0.3c4-4.1,8.1-8.1,12.1-12.1
		c1.1-1.1,1.1-1.2-0.4-1.6c-14.4-4.1-28.7-8.1-43.1-12.2C37.5,19.8,35.8,19.3,34.2,18.9z"/>
</g>
</svg>
