<?xml version="1.0" encoding="utf-8"?>
<!-- Generator: Adobe Illustrator 23.0.5, SVG Export Plug-In . SVG Version: 6.00 Build 0)  -->
<svg version="1.1" id="Layer_1" xmlns="http://www.w3.org/2000/svg" xmlns:xlink="http://www.w3.org/1999/xlink" x="0px" y="0px"
	 viewBox="0 0 150 150" style="enable-background:new 0 0 150 150;" xml:space="preserve">
<style type="text/css">
	.st0{fill:url(#a_1_);}
	.st1{fill:#FFFFFF;}
</style>
<g>
	
		<linearGradient id="a_1_" gradientUnits="userSpaceOnUse" x1="-105.661" y1="338.5183" x2="-105.661" y2="279.0785" gradientTransform="matrix(2.4414 0 0 -2.4414 332.9648 828.9023)">
		<stop  offset="0" style="stop-color:#61FD7D"/>
		<stop  offset="1" style="stop-color:#2BB826"/>
	</linearGradient>
	<path id="a" class="st0" d="M147.6,110.7c0,0.8,0,2.5-0.1,3.8c-0.1,3.3-0.4,7.5-0.8,9.4c-0.6,2.9-1.5,5.6-2.6,7.9
		c-1.4,2.7-3.1,5.1-5.2,7.1c-2.1,2.1-4.5,3.8-7.1,5.2c-2.3,1.2-5,2-7.9,2.6c-1.9,0.4-6.1,0.6-9.3,0.8c-1.3,0-3.1,0.1-3.8,0.1
		l-71.5,0c-0.8,0-2.5,0-3.8-0.1c-3.3-0.1-7.5-0.4-9.4-0.8c-2.9-0.6-5.6-1.5-7.9-2.6c-2.7-1.4-5.1-3.1-7.1-5.2
		c-2.1-2.1-3.8-4.5-5.2-7.1c-1.2-2.3-2-5-2.6-7.9c-0.4-1.9-0.6-6.1-0.8-9.3c0-1.3-0.1-3.1-0.1-3.8l0-71.5c0-0.8,0-2.5,0.1-3.8
		C2.6,32.2,2.9,28,3.3,26c0.6-2.9,1.5-5.6,2.6-7.9c1.4-2.7,3.1-5.1,5.2-7.1c2.1-2.1,4.5-3.8,7.1-5.2c2.3-1.2,5-2,7.9-2.6
		c1.9-0.4,6.1-0.6,9.3-0.8c1.3,0,3.1-0.1,3.8-0.1l71.5,0c0.8,0,2.5,0,3.8,0.1c3.3,0.1,7.5,0.4,9.4,0.8c2.9,0.6,5.6,1.5,7.9,2.6
		c2.7,1.4,5.1,3.1,7.1,5.2c2.1,2.1,3.8,4.5,5.2,7.1c1.2,2.3,2,5,2.6,7.9c0.4,1.9,0.6,6.1,0.8,9.3c0,1.3,0.1,3.1,0.1,3.8L147.6,110.7
		L147.6,110.7z"/>
</g>
<g>
	<path class="st1" d="M113.4,36.8c-9.8-9.8-22.9-15.3-36.8-15.3c-28.7,0-52,23.3-52,52c0,9.2,2.4,18.1,6.9,26l-7.4,27l27.6-7.2
		c7.6,4.1,16.2,6.3,24.9,6.3h0c28.7,0,52-23.3,52-52C128.7,59.7,123.3,46.6,113.4,36.8L113.4,36.8z M76.6,116.8L76.6,116.8
		c-7.8,0-15.4-2.1-22-6l-1.6-0.9l-16.4,4.3l4.4-16l-1-1.6c-4.3-6.9-6.6-14.8-6.6-23c0-23.8,19.4-43.2,43.3-43.2
		c11.6,0,22.4,4.5,30.6,12.7s12.7,19,12.7,30.6C119.9,97.4,100.5,116.8,76.6,116.8L76.6,116.8z M100.4,84.4
		c-1.3-0.7-7.7-3.8-8.9-4.2c-1.2-0.4-2.1-0.7-2.9,0.7c-0.9,1.3-3.4,4.2-4.1,5.1c-0.8,0.9-1.5,1-2.8,0.3c-1.3-0.7-5.5-2-10.5-6.5
		c-3.9-3.4-6.5-7.7-7.2-9c-0.8-1.3-0.1-2,0.6-2.7c0.6-0.6,1.3-1.5,2-2.3c0.7-0.8,0.9-1.3,1.3-2.2c0.4-0.9,0.2-1.6-0.1-2.3
		c-0.3-0.7-2.9-7-4-9.7c-1.1-2.5-2.1-2.2-2.9-2.2c-0.8,0-1.6,0-2.5,0s-2.3,0.3-3.5,1.6s-4.6,4.4-4.6,10.8s4.7,12.6,5.3,13.4
		c0.7,0.9,9.2,14,22.2,19.6c3.1,1.3,5.5,2.1,7.4,2.7c3.1,1,5.9,0.8,8.2,0.5c2.5-0.4,7.7-3.1,8.8-6.2c1.1-3,1.1-5.6,0.8-6.2
		C102.5,85.4,101.7,85.1,100.4,84.4L100.4,84.4z"/>
</g>
</svg>
