<svg id="Layer_1" data-name="Layer 1" xmlns="http://www.w3.org/2000/svg" viewBox="0 0 52 52"><defs><style>.cls-1{fill:none;stroke:#ddd;stroke-miterlimit:10;}.cls-2{fill:#ffc107;}.cls-3{fill:#fafafa;}</style></defs><title>what&amp;apos;s-new</title><path class="cls-1" d="M25.85717.84019h.00005a25,25,0,0,1,25,25v0a25,25,0,0,1-25,25h-.00005a25,25,0,0,1-25-25v0a25,25,0,0,1,25-25Z"/><path class="cls-2" d="M40.479,23.29011c-.51143-.37707-1.1558-.84807-1.23381-1.1558a3.86823,3.86823,0,0,1,.497-1.69467c.45076-1.03444.91593-2.1064.39875-2.99781S38.44767,16.406,37.31645,16.286a3.8481,3.8481,0,0,1-1.6889-.40308,3.84684,3.84684,0,0,1-.40166-1.69467c-.12712-1.13121-.25863-2.30144-1.1558-2.82445s-1.97062-.065-3.005.3915a3.87941,3.87941,0,0,1-1.69608.497c-.31206-.08377-.78157-.72239-1.1558-1.23382-.65589-.88417-1.39418-1.88678-2.46038-1.88678s-1.80444,1.00261-2.45605,1.88678c-.3785.51286-.84807,1.1558-1.1558,1.23524a3.96254,3.96254,0,0,1-1.69608-.497c-1.0402-.458-2.11216-.91451-3.00067-.40017s-1.03728,1.69324-1.16446,2.83163a3.86641,3.86641,0,0,1-.40167,1.68891A3.85972,3.85972,0,0,1,14.195,16.273c-1.13263.12711-2.30435.25862-2.82587,1.1558s-.06346,1.96926.39305,3.00513a3.866,3.866,0,0,1,.497,1.70041c-.08377.31206-.72238.78306-1.23381,1.1558-.88417.65012-1.88678,1.38985-1.88678,2.45605s1.00261,1.80592,1.88827,2.456c.51143.37708,1.1558.84808,1.23381,1.1558a3.86824,3.86824,0,0,1-.497,1.69467c-.45075,1.03444-.91593,2.1064-.39874,2.99782s1.69323,1.03586,2.82445,1.1558a3.84809,3.84809,0,0,1,1.6889.40307A3.847,3.847,0,0,1,16.28,37.304c.12711,1.13121.25862,2.30144,1.1558,2.82445s1.96195.052,2.99781-.39874a3.96819,3.96819,0,0,1,1.70767-.49118c.31206.08377.78157.72238,1.1558,1.23381.65154.88417,1.38985,1.88678,2.45605,1.88678s1.80443-1.00261,2.456-1.88678c.3785-.51285.84808-1.1558,1.1558-1.23524a3.90023,3.90023,0,0,1,1.69608.497c1.03445.45076,2.1064.91309,2.99634.40017s1.03728-1.69324,1.16446-2.82587a3.86616,3.86616,0,0,1,.40167-1.68891,3.86,3.86,0,0,1,1.68741-.40016c1.13264-.12712,2.30435-.25863,2.82587-1.1558s.0506-1.962-.39874-2.99782a3.86577,3.86577,0,0,1-.49118-1.70766c.08377-.31206.72239-.78307,1.23381-1.1558.88417-.65155,1.88828-1.39127,1.88828-2.456S41.36457,23.94023,40.479,23.29011Z"/><path class="cls-3" d="M21.41876,29.35793a.72232.72232,0,0,1-.57787-.289L17.807,25.02377v3.61178a.72238.72238,0,1,1-1.44476,0V22.85669a.72235.72235,0,0,1,1.30025-.43341l3.0339,4.04519V22.85669a.72239.72239,0,0,1,1.44477,0v5.77886a.72234.72234,0,0,1-.4941.6848A.71118.71118,0,0,1,21.41876,29.35793Z"/><path class="cls-3" d="M27.1977,29.35793H24.30822a.7224.7224,0,0,1-.72238-.72238V22.85669a.7224.7224,0,0,1,.72238-.72237H27.1977a.72238.72238,0,0,1,.00256,1.44476H25.03061v4.33415H27.1977a.72235.72235,0,1,1,.00091,1.4447Z"/><path class="cls-3" d="M27.1977,26.46854H24.30822a.72239.72239,0,0,1,0-1.44477H27.1977a.72239.72239,0,0,1,.00169,1.44477Z"/><path class="cls-3" d="M34.42125,29.35793a.72221.72221,0,0,1-.68621-.49409l-.75848-2.27828-.75848,2.27833a.69064.69064,0,0,1-.71372.49267.72226.72226,0,0,1-.67321-.5461l-1.44471-5.77884a.72288.72288,0,0,1,1.40284-.34963l.84225,3.372.66022-1.98071a.75272.75272,0,0,1,1.37108,0L34.323,26.054l.84226-3.372a.72288.72288,0,1,1,1.40284.34965l-1.4447,5.77885a.72233.72233,0,0,1-.67321.54611Z"/><path d="M25.75292,42.36042c-1.06621,0-1.80592-1.00262-2.45605-1.88827-.37707-.51144-.84807-1.1558-1.15579-1.23381a3.82114,3.82114,0,0,0-1.69467.497c-1.03587.45076-2.10783.91742-2.99924.39875s-1.03444-1.69324-1.1558-2.82445a3.8623,3.8623,0,0,0-.40308-1.69034,3.86571,3.86571,0,0,0-1.69323-.40016c-1.13264-.12712-2.30286-.25863-2.82588-1.16447s-.06345-1.96188.39306-2.99626a3.88275,3.88275,0,0,0,.49844-1.70041c-.08377-.31206-.72238-.78158-1.23524-1.1558-.88417-.65161-1.88678-1.39127-1.88678-2.45605s1.00261-1.80443,1.88678-2.45605c.51286-.37849,1.1558-.84807,1.23382-1.1558a3.86876,3.86876,0,0,0-.497-1.69608c-.45651-1.04019-.91451-2.11073-.39875-3.00215s1.69324-1.03586,2.83163-1.163A3.84817,3.84817,0,0,0,15.884,15.87a3.84822,3.84822,0,0,0,.39583-1.68167c.12712-1.13121.25863-2.30286,1.1558-2.82445s1.96771-.065,3.005.3915a3.79854,3.79854,0,0,0,1.70042.497c.31206-.08377.78306-.72238,1.15579-1.23381.65013-.88417,1.38985-1.88679,2.456-1.88679s1.80593,1.00267,2.45605,1.88828c.37707.51143.84807,1.15579,1.1558,1.23381a3.78157,3.78157,0,0,0,1.69467-.497c1.03295-.44933,2.105-.92175,2.99782-.39874s1.03586,1.69323,1.15579,2.82587a3.85993,3.85993,0,0,0,.40308,1.6889,3.86588,3.86588,0,0,0,1.69467.40017c1.13264.12711,2.30286.25862,2.82587,1.16446s.06359,1.962-.393,2.99634a3.88261,3.88261,0,0,0-.49843,1.70041c.08377.31206.72238.78157,1.23524,1.1558.88417.65155,1.88678,1.39127,1.88678,2.45605s-1.00262,1.80443-1.88678,2.456c-.51286.3785-1.1558.84808-1.23382,1.1558a3.86876,3.86876,0,0,0,.497,1.69609c.45075,1.03586.91593,2.1064.39875,2.99781s-1.69324,1.03587-2.82588,1.1558a3.84793,3.84793,0,0,0-1.6889.40308A3.85945,3.85945,0,0,0,35.226,37.304c-.12711,1.13264-.25863,2.30434-1.1558,2.82588s-1.96337.0491-2.99782-.39874a3.80512,3.80512,0,0,0-1.70766-.49119c-.31206.08378-.78307.72239-1.1558,1.23382C27.55885,41.3578,26.81913,42.36042,25.75292,42.36042Zm-3.74613-4.58121a1.946,1.946,0,0,1,.50276.06359,4.17611,4.17611,0,0,1,1.94312,1.77266c.38141.51719.95785,1.30025,1.30025,1.30025s.9116-.78157,1.30025-1.30025a4.1765,4.1765,0,0,1,1.949-1.77409,4.30507,4.30507,0,0,1,2.64526.5692c.57787.24847,1.43461.62554,1.69757.47384s.38-1.10812.45075-1.73367a4.22879,4.22879,0,0,1,.81625-2.54848,4.24291,4.24291,0,0,1,2.5499-.81773c.62846-.07077,1.57764-.17628,1.73367-.45076s-.22537-1.12546-.47384-1.699a4.27031,4.27031,0,0,1-.56778-2.64383,4.16993,4.16993,0,0,1,1.76833-1.94462c.51719-.3814,1.30025-.95785,1.30025-1.30025s-.78157-.91159-1.30025-1.293a4.17683,4.17683,0,0,1-1.77409-1.95179,4.28054,4.28054,0,0,1,.56777-2.64384c.24847-.57787.62555-1.4447.47385-1.69757s-1.10812-.38141-1.73367-.45075a4.23166,4.23166,0,0,1-2.54991-.81625,4.236,4.236,0,0,1-.81773-2.54991c-.07077-.62987-.1777-1.57906-.45075-1.73366s-1.12546.22537-1.69757.47384a4.26474,4.26474,0,0,1-2.64526.5692,4.17644,4.17644,0,0,1-1.94171-1.77559c-.3814-.51719-.95785-1.30025-1.30025-1.30025s-.91159.78157-1.30024,1.30025a4.1765,4.1765,0,0,1-1.94313,1.77267,4.268,4.268,0,0,1-2.64526-.5692c-.57787-.24847-1.43461-.627-1.69757-.47384s-.38,1.10812-.45076,1.73366A4.23244,4.23244,0,0,1,16.89822,16.89a4.242,4.242,0,0,1-2.54991.81773c-.62845.07077-1.57763.17628-1.73367.45075s.22538,1.12546.47385,1.699a4.27043,4.27043,0,0,1,.56777,2.64385,4.16971,4.16971,0,0,1-1.77266,1.94461c-.51718.38143-1.30023.95786-1.30023,1.30026s.78157.9116,1.30025,1.293A4.17678,4.17678,0,0,1,13.6577,28.991a4.281,4.281,0,0,1-.56777,2.64384c-.24847.57786-.62554,1.4447-.47385,1.69756s1.10812.38141,1.73367.45218a4.23166,4.23166,0,0,1,2.54991.81625,4.23757,4.23757,0,0,1,.81773,2.55139c.06933.62846.17628,1.57764.44933,1.73367s1.12546-.22538,1.699-.47384A5.74206,5.74206,0,0,1,22.00679,37.77921Z"/><path d="M21.41876,29.35793a.72232.72232,0,0,1-.57787-.289L17.807,25.02377v3.61178a.72238.72238,0,1,1-1.44476,0V22.85669a.72235.72235,0,0,1,1.30025-.43341l3.0339,4.04519V22.85669a.72239.72239,0,0,1,1.44477,0v5.77886a.72222.72222,0,0,1-.4941.68622A.75286.75286,0,0,1,21.41876,29.35793Z"/><path d="M27.1977,29.35793H24.30822a.7224.7224,0,0,1-.72238-.72238V22.85669a.7224.7224,0,0,1,.72238-.72237H27.1977a.72238.72238,0,0,1,.00256,1.44476H25.03061v4.33415H27.1977a.72235.72235,0,1,1,.00091,1.4447Z"/><path d="M27.1977,26.46854H24.30822a.72239.72239,0,0,1,0-1.44477H27.1977a.72239.72239,0,0,1,.00169,1.44477Z"/><path d="M34.42125,29.35793a.72233.72233,0,0,1-.6848-.49409l-.7599-2.27828-.7599,2.27833a.72233.72233,0,0,1-1.38544-.05349l-1.4447-5.77886a.72237.72237,0,0,1,1.3933-.38209l.00813.03244.84373,3.372.66021-1.98071a.75126.75126,0,0,1,1.3696,0l.66021,1.98071.84374-3.372a.72236.72236,0,0,1,1.41007.31455l-.00059.00259-.00813.03251-1.44469,5.77886a.72231.72231,0,0,1-.67322.54752Z"/></svg>